<svg width="20" height="22" viewBox="0 0 20 22" fill="none" xmlns="http://www.w3.org/2000/svg">
<path fill-rule="evenodd" clip-rule="evenodd" d="M11.9923 1.12408C12.0473 0.683581 11.8054 0.259512 11.3982 0.0827434C10.991 -0.0940254 10.516 0.0188263 10.2318 0.35986L1.32524 11.0477L1.30233 11.0752C1.14801 11.2603 0.991704 11.4478 0.8779 11.6126C0.770274 11.7684 0.573766 12.0748 0.567694 12.4774C0.560744 12.9384 0.766154 13.377 1.12473 13.6667C1.43795 13.9198 1.79911 13.965 1.98772 13.9821C2.18714 14.0001 2.43123 14.0001 2.67222 14H2.67223L8.86722 14L8.00773 20.876C7.95266 21.3165 8.19459 21.7406 8.60181 21.9173C9.00902 22.0941 9.48403 21.9813 9.76822 21.6402L18.6977 10.9248L18.6978 10.9248C18.8521 10.7397 19.0083 10.5522 19.1221 10.3875C19.2297 10.2317 19.4262 9.92532 19.4323 9.52266C19.4393 9.06168 19.2338 8.62313 18.8753 8.33337C18.5621 8.08026 18.2009 8.03508 18.0123 8.01801C17.8129 7.99995 17.5688 8 17.3278 8.00004H17.3278L11.1328 8.00004L11.9923 1.12408Z" fill="black"/>
</svg>
