<svg width="17" height="20" viewBox="0 0 17 20" fill="none" xmlns="http://www.w3.org/2000/svg">
<path fill-rule="evenodd" clip-rule="evenodd" d="M4.86242 4.72167e-05L5 9.64501e-05L11.2413 9.59733e-05C12.0463 8.32179e-05 12.7106 7.27288e-05 13.2518 0.0442901C13.8139 0.0902153 14.3306 0.18878 14.816 0.43607C15.5686 0.819563 16.1805 1.43149 16.564 2.18414C16.8113 2.66947 16.9099 3.18617 16.9558 3.74827C17 4.28946 17 4.95381 17 5.75877V14.2414C17 15.0464 17 15.7107 16.9558 16.2519C16.9099 16.814 16.8113 17.3307 16.564 17.8161C16.1805 18.5687 15.5686 19.1806 14.816 19.5641C14.3306 19.8114 13.8139 19.91 13.2518 19.9559C12.7106 20.0001 12.0463 20.0001 11.2413 20.0001H5L4.86243 20.0001C4.06704 20.0006 3.47638 20.0009 2.96472 19.8638C1.58436 19.4939 0.506165 18.4157 0.136297 17.0354C-0.000800691 16.5237 -0.000480857 15.9331 -5.01542e-05 15.1377L-9.20758e-07 15.0001V11H8.58579L6.29289 13.2929C5.90237 13.6834 5.90237 14.3166 6.29289 14.7071C6.68342 15.0976 7.31658 15.0976 7.70711 14.7071L11.7071 10.7071C12.0976 10.3166 12.0976 9.68342 11.7071 9.29289L7.70711 5.29289C7.31658 4.90237 6.68342 4.90237 6.29289 5.29289C5.90237 5.68342 5.90237 6.31658 6.29289 6.70711L8.58579 9H-9.20758e-07V5.0001L-5.01542e-05 4.86252C-0.000480857 4.06713 -0.000800691 3.47647 0.136296 2.96482C0.506164 1.58445 1.58435 0.506262 2.96472 0.136393C3.47637 -0.00070332 4.06703 -0.000383487 4.86242 4.72167e-05Z" fill="black"/>
</svg>
