<svg width="22" height="21" viewBox="0 0 22 21" fill="none" xmlns="http://www.w3.org/2000/svg">
<path d="M11.5294 0.0704071C11.1827 -0.0234691 10.8173 -0.0234691 10.4706 0.0704071C10.0681 0.179386 9.72919 0.445433 9.45874 0.65777L9.38315 0.716936L2.4346 6.12127C2.05311 6.41732 1.71701 6.67815 1.46656 7.01677C1.24677 7.31394 1.08303 7.64871 0.983404 8.00465C0.869877 8.41023 0.870337 8.83566 0.870858 9.31856L0.870929 16.7856C0.870911 17.3195 0.870895 17.7801 0.901894 18.1596C0.934612 18.56 1.00685 18.9583 1.20213 19.3416C1.49346 19.9133 1.95833 20.3782 2.5301 20.6695C2.91336 20.8648 3.31166 20.937 3.7121 20.9698C4.0915 21.0008 4.55213 21.0007 5.08607 21.0007H16.9139C17.4479 21.0007 17.9085 21.0008 18.2879 20.9698C18.6883 20.937 19.0866 20.8648 19.4699 20.6695C20.0417 20.3782 20.5065 19.9133 20.7979 19.3416C20.9931 18.9583 21.0654 18.56 21.0981 18.1596C21.1291 17.7802 21.1291 17.3195 21.1291 16.7856L21.1291 9.31856C21.1296 8.83567 21.1301 8.41023 21.0166 8.00465C20.917 7.64871 20.7532 7.31394 20.5334 7.01677C20.283 6.67816 19.9469 6.41733 19.5654 6.12128L12.6168 0.716936L12.5413 0.657771C12.2708 0.445434 11.9319 0.179386 11.5294 0.0704071Z" fill="black"/>
</svg>
