<svg width="22" height="18" viewBox="0 0 22 18" fill="none" xmlns="http://www.w3.org/2000/svg">
<path fill-rule="evenodd" clip-rule="evenodd" d="M5.7587 4.09674e-07H16.2413H16.2413C17.0463 -1.19146e-05 17.7106 -2.20858e-05 18.2518 0.0441949C18.8139 0.0901201 19.3306 0.188684 19.816 0.435975C20.5686 0.819469 21.1805 1.43139 21.564 2.18404C21.8113 2.66937 21.9099 3.18608 21.9558 3.74818C22 4.28937 22 4.95372 22 5.75868V12.2413C22 13.0463 22 13.7106 21.9558 14.2518C21.9099 14.8139 21.8113 15.3306 21.564 15.816C21.1805 16.5686 20.5686 17.1805 19.816 17.564C19.3306 17.8113 18.8139 17.9099 18.2518 17.9558C17.7106 18 17.0463 18 16.2413 18H5.75868C4.95372 18 4.28937 18 3.74818 17.9558C3.18608 17.9099 2.66937 17.8113 2.18404 17.564C1.43139 17.1805 0.819469 16.5686 0.435975 15.816C0.188684 15.3306 0.0901201 14.8139 0.0441949 14.2518C-2.20836e-05 13.7106 -1.19145e-05 13.0463 4.09668e-07 12.2413V12.2413V5.7587V5.75869C-1.19145e-05 4.95372 -2.20857e-05 4.28937 0.0441949 3.74818C0.0901201 3.18608 0.188684 2.66937 0.435975 2.18404C0.819469 1.43139 1.43139 0.819469 2.18404 0.435975C2.66937 0.188684 3.18608 0.0901201 3.74818 0.0441949C4.28937 -2.20836e-05 4.95372 -1.19146e-05 5.75869 4.09674e-07H5.7587ZM8 4C8 3.44772 7.55229 3 7 3C6.44772 3 6 3.44772 6 4V5C6 5.55229 6.44772 6 7 6C7.55229 6 8 5.55229 8 5V4ZM8 8.5C8 7.94772 7.55229 7.5 7 7.5C6.44772 7.5 6 7.94772 6 8.5V9.5C6 10.0523 6.44772 10.5 7 10.5C7.55229 10.5 8 10.0523 8 9.5V8.5ZM8 13C8 12.4477 7.55229 12 7 12C6.44772 12 6 12.4477 6 13V14C6 14.5523 6.44772 15 7 15C7.55229 15 8 14.5523 8 14V13Z" fill="black"/>
</svg>
