<svg width="20" height="21" viewBox="0 0 20 21" fill="none" xmlns="http://www.w3.org/2000/svg">
<path fill-rule="evenodd" clip-rule="evenodd" d="M2.56811 0.500003C2.57873 0.500004 2.58936 0.500005 2.6 0.500005H6.4C6.41065 0.500005 6.42128 0.500004 6.4319 0.500003C6.68428 0.499973 6.93008 0.499943 7.13824 0.51695C7.36683 0.535627 7.63656 0.579695 7.90798 0.717992C8.28431 0.909739 8.59027 1.2157 8.78202 1.59202C8.92031 1.86345 8.96438 2.13318 8.98306 2.36178C9.00007 2.56994 9.00004 2.81574 9.00001 3.06813V6.93189C9.00004 7.18427 9.00007 7.43007 8.98306 7.63824C8.96438 7.86683 8.92031 8.13656 8.78202 8.40799C8.59027 8.78431 8.28431 9.09027 7.90798 9.28202C7.63656 9.42032 7.36683 9.46438 7.13824 9.48306C6.93007 9.50007 6.68428 9.50004 6.43189 9.50001H2.56813C2.31574 9.50004 2.06994 9.50007 1.86178 9.48306C1.63318 9.46438 1.36345 9.42032 1.09202 9.28202C0.715701 9.09027 0.40974 8.78431 0.217993 8.40799C0.079696 8.13656 0.0356279 7.86683 0.0169512 7.63824C-5.60638e-05 7.43008 -2.74201e-05 7.18429 2.50134e-06 6.9319C3.81264e-06 6.92128 4.40869e-06 6.91065 4.40869e-06 6.90001V3.10001C4.40869e-06 3.08936 3.81264e-06 3.07873 2.50134e-06 3.06811C-2.74201e-05 2.81572 -5.60638e-05 2.56993 0.0169512 2.36178C0.0356279 2.13318 0.0796943 1.86345 0.217991 1.59202C0.409738 1.2157 0.715701 0.909739 1.09202 0.717992C1.36345 0.579695 1.63318 0.535627 1.86178 0.51695C2.06993 0.499943 2.31572 0.499973 2.56811 0.500003ZM13.5681 0.500003H17.4319C17.6843 0.499973 17.9301 0.499943 18.1382 0.51695C18.3668 0.535627 18.6366 0.579695 18.908 0.717992C19.2843 0.909739 19.5903 1.2157 19.782 1.59202C19.9203 1.86345 19.9644 2.13318 19.9831 2.36178C20.0001 2.56993 20 2.81571 20 3.06809V6.93192C20 7.1843 20.0001 7.43008 19.9831 7.63824C19.9644 7.86683 19.9203 8.13656 19.782 8.40799C19.5903 8.78431 19.2843 9.09027 18.908 9.28202C18.6366 9.42032 18.3668 9.46438 18.1382 9.48306C17.9301 9.50007 17.6843 9.50004 17.4319 9.50001H13.5681C13.3157 9.50004 13.0699 9.50007 12.8618 9.48306C12.6332 9.46438 12.3634 9.42032 12.092 9.28202C11.7157 9.09027 11.4097 8.78431 11.218 8.40799C11.0797 8.13656 11.0356 7.86683 11.0169 7.63824C10.9999 7.43007 11 7.18428 11 6.93189V3.06812C11 2.81574 10.9999 2.56994 11.0169 2.36178C11.0356 2.13318 11.0797 1.86345 11.218 1.59202C11.4097 1.2157 11.7157 0.909739 12.092 0.717992C12.3634 0.579695 12.6332 0.535627 12.8618 0.51695C13.0699 0.499943 13.3157 0.499973 13.5681 0.500003ZM2.56813 11.5H6.43189C6.68428 11.5 6.93007 11.4999 7.13824 11.5169C7.36683 11.5356 7.63656 11.5797 7.90798 11.718C8.28431 11.9097 8.59027 12.2157 8.78202 12.592C8.92031 12.8634 8.96438 13.1332 8.98306 13.3618C9.00007 13.5699 9.00004 13.8157 9.00001 14.0681V17.9319C9.00004 18.1843 9.00007 18.4301 8.98306 18.6382C8.96438 18.8668 8.92031 19.1366 8.78202 19.408C8.59027 19.7843 8.28431 20.0903 7.90798 20.282C7.63656 20.4203 7.36683 20.4644 7.13824 20.4831C6.93008 20.5001 6.6843 20.5 6.43192 20.5H2.56809C2.31571 20.5 2.06993 20.5001 1.86178 20.4831C1.63318 20.4644 1.36345 20.4203 1.09202 20.282C0.715702 20.0903 0.40974 19.7843 0.217993 19.408C0.0796959 19.1366 0.0356279 18.8668 0.0169512 18.6382C-5.60042e-05 18.4301 -2.74201e-05 18.1843 2.50134e-06 17.9319V14.0681C-2.74201e-05 13.8157 -5.60042e-05 13.5699 0.0169512 13.3618C0.0356279 13.1332 0.0796942 12.8634 0.217991 12.592C0.409738 12.2157 0.715702 11.9097 1.09202 11.718C1.36345 11.5797 1.63318 11.5356 1.86178 11.5169C2.06994 11.4999 2.31574 11.5 2.56813 11.5ZM13.5681 11.5H17.4319C17.6843 11.5 17.9301 11.4999 18.1382 11.5169C18.3668 11.5356 18.6366 11.5797 18.908 11.718C19.2843 11.9097 19.5903 12.2157 19.782 12.592C19.9203 12.8634 19.9644 13.1332 19.9831 13.3618C20.0001 13.5699 20 13.8157 20 14.0681V17.9319C20 18.1843 20.0001 18.4301 19.9831 18.6382C19.9644 18.8668 19.9203 19.1366 19.782 19.408C19.5903 19.7843 19.2843 20.0903 18.908 20.282C18.6366 20.4203 18.3668 20.4644 18.1382 20.4831C17.9301 20.5001 17.6843 20.5 17.4319 20.5H13.5681C13.3157 20.5 13.0699 20.5001 12.8618 20.4831C12.6332 20.4644 12.3634 20.4203 12.092 20.282C11.7157 20.0903 11.4097 19.7843 11.218 19.408C11.0797 19.1366 11.0356 18.8668 11.0169 18.6382C10.9999 18.4301 11 18.1843 11 17.9319V14.0681C11 13.8157 10.9999 13.5699 11.0169 13.3618C11.0356 13.1332 11.0797 12.8634 11.218 12.592C11.4097 12.2157 11.7157 11.9097 12.092 11.718C12.3634 11.5797 12.6332 11.5356 12.8618 11.5169C13.0699 11.4999 13.3157 11.5 13.5681 11.5Z" fill="black"/>
</svg>
