<svg width="18" height="21" viewBox="0 0 18 21" fill="none" xmlns="http://www.w3.org/2000/svg">
<path d="M7 8C7 6.89543 7.89543 6 9 6C10.1046 6 11 6.89543 11 8C11 9.10457 10.1046 10 9 10C7.89543 10 7 9.10457 7 8Z" fill="black"/>
<path fill-rule="evenodd" clip-rule="evenodd" d="M12.2413 3.89794e-07H5.7587C4.95375 -1.15318e-05 4.28936 -2.1372e-05 3.74818 0.0441953C3.18608 0.0901205 2.66938 0.188685 2.18404 0.435976C1.43139 0.819469 0.81947 1.43139 0.435976 2.18404C0.188686 2.66938 0.0901208 3.18608 0.0441956 3.74818C-2.11783e-05 4.28936 -1.15859e-05 4.95371 3.92333e-07 5.75867V15.2413C-1.15859e-05 16.0463 -2.11783e-05 16.7106 0.0441956 17.2518C0.0901208 17.8139 0.188686 18.3306 0.435976 18.816C0.81947 19.5686 1.43139 20.1805 2.18404 20.564C2.66938 20.8113 3.18608 20.9099 3.74818 20.9558C4.28937 21 4.95372 21 5.75868 21H12.2413C13.0463 21 13.7106 21 14.2518 20.9558C14.8139 20.9099 15.3306 20.8113 15.816 20.564C16.5686 20.1805 17.1805 19.5686 17.564 18.816C17.8113 18.3306 17.9099 17.8139 17.9558 17.2518C18 16.7106 18 16.0463 18 15.2413V5.75868C18 4.95372 18 4.28937 17.9558 3.74818C17.9099 3.18608 17.8113 2.66938 17.564 2.18404C17.1805 1.43139 16.5686 0.819469 15.816 0.435976C15.3306 0.188685 14.8139 0.0901205 14.2518 0.0441953C13.7106 -2.13683e-05 13.0463 -1.15318e-05 12.2413 3.89794e-07ZM9 4C6.79086 4 5 5.79086 5 8C5 10.2091 6.79086 12 9 12C11.2091 12 13 10.2091 13 8C13 5.79086 11.2091 4 9 4ZM7 14C6.44772 14 6 14.4477 6 15C6 15.5523 6.44772 16 7 16H11C11.5523 16 12 15.5523 12 15C12 14.4477 11.5523 14 11 14H7Z" fill="black"/>
</svg>
