<svg width="21" height="23" viewBox="0 0 21 23" fill="none" xmlns="http://www.w3.org/2000/svg">
<path d="M6.5 7.5L2.59346 12.1879C2.24465 12.6064 2.07024 12.8157 2.06758 12.9925C2.06526 13.1461 2.13373 13.2923 2.25326 13.3889C2.39075 13.5 2.66318 13.5 3.20803 13.5H10.5L9.5 21.5L14.5 15.5M14.15 9.5H17.792C18.3368 9.5 18.6093 9.5 18.7467 9.61111C18.8663 9.7077 18.9347 9.85388 18.9324 10.0075C18.9298 10.1843 18.7554 10.3936 18.4065 10.8121L17.0502 12.4397M9.07275 4.41265L11.5 1.5L10.9002 6.29771M19.5 20.5L1.5 2.5" stroke="#7B818E" stroke-width="2" stroke-linecap="round" stroke-linejoin="round"/>
</svg>
