<svg width="20" height="22" viewBox="0 0 20 22" fill="none" xmlns="http://www.w3.org/2000/svg">
<path fill-rule="evenodd" clip-rule="evenodd" d="M13.2804 4.7207C13.4221 4.3418 13.4997 3.92969 13.4997 3.5C13.4997 1.56641 11.9327 0 9.99972 0C8.06672 0 6.49972 1.56641 6.49972 3.5C6.49972 3.92969 6.57731 4.3418 6.71904 4.7207C6.13314 4.99609 5.58766 5.3457 5.10215 5.76758C3.77751 6.91602 2.99972 8.50586 2.99972 10.1992C2.99972 12.3086 2.47946 13.8008 1.867 14.8359L1.8568 14.8535C1.463 15.5195 1.15544 16.0391 0.949152 16.4121C0.846035 16.5996 0.755305 16.7715 0.689339 16.9199C0.656624 16.9941 0.620541 17.082 0.592425 17.1758C0.571461 17.2461 0.519877 17.4258 0.541329 17.6465C0.553107 17.7656 0.580132 18.0059 0.719467 18.25C0.858803 18.4941 1.05104 18.6387 1.14875 18.7109C1.308 18.8281 1.46735 18.877 1.54671 18.8984C1.64038 18.9258 1.73139 18.9395 1.80685 18.9512C1.95773 18.9707 2.13341 18.9805 2.31652 18.9883C2.68155 19 3.19198 19 3.83508 19H6.12574C6.56978 20.7246 8.13588 22 9.99972 22C11.8636 22 13.4297 20.7246 13.8737 19H16.1644C16.8075 19 17.3179 19 17.6829 18.9883C17.866 18.9805 18.0417 18.9707 18.1926 18.9512L18.2764 18.9395C18.3317 18.9297 18.3916 18.916 18.4527 18.8984C18.5321 18.877 18.6914 18.8281 18.8507 18.7109C18.9484 18.6387 19.1406 18.4941 19.28 18.25C19.4193 18.0059 19.4463 17.7656 19.4581 17.6465C19.4685 17.5391 19.4618 17.4434 19.4497 17.3633C19.4368 17.2793 19.4178 17.2129 19.407 17.1758C19.3789 17.082 19.3428 16.9941 19.3101 16.9199C19.2441 16.7715 19.1534 16.5996 19.0503 16.4121C18.8491 16.0488 18.5516 15.5469 18.1717 14.9004L18.1426 14.8535L18.1324 14.8359C17.52 13.8008 16.9997 12.3086 16.9997 10.1992C16.9997 8.50586 16.2219 6.91602 14.8973 5.76758C14.4118 5.3457 13.8663 4.99609 13.2804 4.7207ZM8.26728 19C8.61309 19.5977 9.25944 20 9.99972 20C10.74 20 11.3863 19.5977 11.7322 19H8.26728Z" fill="black"/>
</svg>
