<svg width="22" height="22" viewBox="0 0 22 22" fill="none" xmlns="http://www.w3.org/2000/svg">
<path fill-rule="evenodd" clip-rule="evenodd" d="M0 11C0 4.92487 4.92487 0 11 0C17.0751 0 22 4.92487 22 11C22 17.0751 17.0751 22 11 22C4.92487 22 0 17.0751 0 11ZM8.75574 13C7.51759 13 6.45508 14.6489 6 17L16 17C15.5449 14.649 14.4824 13 13.2443 13H13.1821C12.5227 13.3203 11.7823 13.5 11 13.5C10.2177 13.5 9.47732 13.3203 8.81794 13H8.75574ZM15 8.5C15 10.7091 13.2091 12.5 11 12.5C8.79086 12.5 7 10.7091 7 8.5C7 6.29086 8.79086 4.5 11 4.5C13.2091 4.5 15 6.29086 15 8.5Z" fill="black"/>
</svg>
