<svg width="34" height="34" viewBox="0 0 34 34" fill="none" xmlns="http://www.w3.org/2000/svg">
<path d="M16.9999 32.9998C25.8364 32.9998 32.9998 25.8364 32.9998 16.9999C32.9998 8.1634 25.8364 1 16.9999 1C8.1634 1 1 8.1634 1 16.9999C1 25.8364 8.1634 32.9998 16.9999 32.9998Z" fill="#C5C9D3" stroke="#C5C9D3" stroke-width="2" stroke-linecap="round" stroke-linejoin="round"/>
<path d="M23.3999 23.1616C23.3999 23.1616 20.9999 19.9617 17 19.9617C13 19.9617 10.6 23.1616 10.6 23.1616" fill="#C5C9D3"/>
<path d="M24.9999 11.3457C24.3679 12.1217 23.5039 12.5617 22.5999 12.5617C21.6959 12.5617 20.8559 12.1217 20.1999 11.3457" fill="#C5C9D3"/>
<path d="M13.8 11.3457C13.168 12.1217 12.304 12.5617 11.4 12.5617C10.496 12.5617 9.656 12.1217 9 11.3457" fill="#C5C9D3"/>
<path d="M23.3999 23.1616C23.3999 23.1616 20.9999 19.9617 17 19.9617C13 19.9617 10.6 23.1616 10.6 23.1616M24.9999 11.3457C24.3679 12.1217 23.5039 12.5617 22.5999 12.5617C21.6959 12.5617 20.8559 12.1217 20.1999 11.3457M13.8 11.3457C13.168 12.1217 12.304 12.5617 11.4 12.5617C10.496 12.5617 9.656 12.1217 9 11.3457" stroke="white" stroke-width="2" stroke-linecap="round" stroke-linejoin="round"/>
</svg>
