<svg width="21" height="19" viewBox="0 0 21 19" fill="none" xmlns="http://www.w3.org/2000/svg">
<path fill-rule="evenodd" clip-rule="evenodd" d="M1.99962 9.5C1.99962 4.25329 6.25292 0 11.4996 0C16.7463 0 20.9996 4.25329 20.9996 9.5C20.9996 14.7467 16.7463 19 11.4996 19C10.298 19 9.14622 18.7764 8.08528 18.3677C7.99433 18.3326 7.94164 18.3124 7.90279 18.2984L7.89042 18.2941L7.88635 18.2944C7.85473 18.2968 7.81157 18.3012 7.72901 18.3097L2.60799 18.8391L2.57411 18.8426C2.35992 18.8648 2.13647 18.8879 1.94958 18.8901C1.76384 18.8923 1.42905 18.8818 1.10804 18.6859C0.731761 18.4564 0.475475 18.073 0.407254 17.6376C0.349053 17.2661 0.467336 16.9527 0.540361 16.7819C0.613824 16.6101 0.720623 16.4125 0.823003 16.2231L0.823042 16.223L2.47491 13.1655C2.54637 13.0332 2.58456 12.962 2.61027 12.909L2.61402 12.9012L2.60694 12.8766C2.58528 12.8033 2.55197 12.7039 2.49538 12.536C2.17361 11.5814 1.99962 10.56 1.99962 9.5ZM10.9881 6.67211C11.2422 6.52274 11.541 6.46814 11.8316 6.51797C12.1222 6.56781 12.3857 6.71888 12.5756 6.94441C12.7654 7.16994 12.8693 7.45539 12.8689 7.75019L12.8689 7.75168C12.8689 7.97025 12.6917 8.27142 12.19 8.60587C11.9696 8.75281 11.7421 8.86729 11.5657 8.94567C11.479 8.98423 11.408 9.01253 11.3612 9.03038C11.3378 9.03928 11.3207 9.04549 11.3108 9.049L11.3015 9.05227C10.7794 9.22801 10.4975 9.79323 10.6719 10.3162C10.8465 10.8402 11.4128 11.1233 11.9368 10.9487L11.6206 10C11.9368 10.9487 11.9377 10.9484 11.938 10.9483L11.9394 10.9478L11.9429 10.9466L11.9524 10.9434L11.9808 10.9334C12.0039 10.9252 12.035 10.9139 12.0732 10.8994C12.1492 10.8704 12.254 10.8284 12.378 10.7733C12.6232 10.6643 12.9577 10.4978 13.2994 10.27C13.9217 9.85509 14.8684 9.03238 14.8689 7.75261C14.8699 6.98568 14.5995 6.24313 14.1056 5.65641C13.6116 5.06954 12.9258 4.67645 12.1697 4.54676C11.4136 4.41707 10.636 4.55916 9.97469 4.94784C9.31332 5.33653 8.81087 5.94674 8.5563 6.67039C8.37303 7.19138 8.6468 7.7623 9.16779 7.94557C9.68878 8.12885 10.2597 7.85507 10.443 7.33408C10.5408 7.05598 10.7339 6.82148 10.9881 6.67211ZM11.6495 12C11.0973 12 10.6495 12.4477 10.6495 13C10.6495 13.5523 11.0973 14 11.6495 14H11.6595C12.2118 14 12.6595 13.5523 12.6595 13C12.6595 12.4477 12.2118 12 11.6595 12H11.6495Z" fill="black"/>
</svg>
