<svg width="22" height="22" viewBox="0 0 22 22" fill="none" xmlns="http://www.w3.org/2000/svg">
<path fill-rule="evenodd" clip-rule="evenodd" d="M4.16146 0H11.8385H11.8386C12.3657 -1.70221e-05 12.8205 -3.17056e-05 13.195 0.0305712C13.5904 0.0628723 13.9836 0.134188 14.362 0.326982C14.9265 0.614602 15.3854 1.07354 15.673 1.63803C15.8658 2.01641 15.9371 2.40963 15.9694 2.80497C16 3.17952 16 3.63424 16 4.16133V4.16136V4.16148V6L17.8385 6C18.3657 5.99998 18.8205 5.99997 19.195 6.03057C19.5904 6.06287 19.9836 6.13419 20.362 6.32698C20.9265 6.6146 21.3854 7.07355 21.673 7.63803C21.8658 8.01641 21.9371 8.40963 21.9694 8.80497C22 9.17954 22 9.6343 22 10.1614V17.8386C22 18.3657 22 18.8205 21.9694 19.195C21.9371 19.5904 21.8658 19.9836 21.673 20.362C21.3854 20.9265 20.9265 21.3854 20.362 21.673C19.9836 21.8658 19.5904 21.9371 19.195 21.9694C18.8205 22 18.3657 22 17.8386 22H10.1614C9.6343 22 9.17954 22 8.80498 21.9694C8.40963 21.9371 8.01641 21.8658 7.63803 21.673C7.07355 21.3854 6.6146 20.9265 6.32698 20.362C6.13419 19.9836 6.06287 19.5904 6.03057 19.195C5.99997 18.8205 5.99998 18.3657 6 17.8385L6 16H4.16148H4.16136H4.16134C3.63424 16 3.17952 16 2.80498 15.9694C2.40963 15.9371 2.01641 15.8658 1.63803 15.673C1.07355 15.3854 0.614604 14.9265 0.326984 14.362C0.13419 13.9836 0.0628741 13.5904 0.0305731 13.195C-3.06783e-05 12.8205 -1.51815e-05 12.3657 2.69986e-06 11.8385V4.16146L2.69974e-06 4.16145C-1.51816e-05 3.63431 -3.06075e-05 3.17954 0.0305731 2.80497C0.0628741 2.40963 0.13419 2.01641 0.326984 1.63803C0.614604 1.07354 1.07355 0.614602 1.63803 0.326982C2.01641 0.134188 2.40963 0.0628723 2.80498 0.0305712C3.17954 -3.17059e-05 3.63429 -1.70221e-05 4.16142 0H4.16146ZM14 6L10.1615 6C9.63431 5.99998 9.17955 5.99997 8.80498 6.03057C8.40963 6.06287 8.01641 6.13419 7.63803 6.32698C7.07355 6.6146 6.6146 7.07354 6.32698 7.63803C6.13419 8.01641 6.06287 8.40963 6.03057 8.80497C5.99997 9.17955 5.99998 9.63431 6 10.1615L6 14H4.2C3.62345 14 3.25118 13.9992 2.96784 13.9761C2.69618 13.9539 2.59546 13.9162 2.54601 13.891C2.35785 13.7951 2.20487 13.6422 2.109 13.454C2.0838 13.4045 2.04613 13.3038 2.02393 13.0322C2.00078 12.7488 2 12.3766 2 11.8V4.2C2 3.62345 2.00078 3.25117 2.02393 2.96784C2.04613 2.69617 2.0838 2.59546 2.109 2.54601C2.20487 2.35785 2.35785 2.20487 2.54601 2.109C2.59546 2.0838 2.69618 2.04612 2.96784 2.02393C3.25118 2.00078 3.62345 2 4.2 2H11.8C12.3766 2 12.7488 2.00078 13.0322 2.02393C13.3038 2.04612 13.4046 2.0838 13.454 2.109C13.6422 2.20487 13.7951 2.35785 13.891 2.54601C13.9162 2.59546 13.9539 2.69617 13.9761 2.96784C13.9992 3.25118 14 3.62345 14 4.2V6ZM18.2071 12.2071C18.5976 11.8166 18.5976 11.1834 18.2071 10.7929C17.8166 10.4024 17.1834 10.4024 16.7929 10.7929L13 14.5858L11.7071 13.2929C11.3166 12.9024 10.6834 12.9024 10.2929 13.2929C9.90237 13.6834 9.90237 14.3166 10.2929 14.7071L12.2929 16.7071C12.6834 17.0976 13.3166 17.0976 13.7071 16.7071L18.2071 12.2071Z" fill="black"/>
</svg>
