<svg width="20" height="20" viewBox="0 0 20 20" fill="none" xmlns="http://www.w3.org/2000/svg">
<g clip-path="url(#clip0_2463_1078)">
<path d="M15.0001 8.33464L12.1382 11.1966C11.9731 11.3616 11.8906 11.4441 11.7955 11.475C11.7118 11.5022 11.6217 11.5022 11.538 11.475C11.4429 11.4441 11.3604 11.3616 11.1953 11.1966L8.80482 8.80604C8.63981 8.64103 8.55731 8.55853 8.46217 8.52762C8.37849 8.50043 8.28834 8.50043 8.20466 8.52762C8.10952 8.55853 8.02702 8.64103 7.86201 8.80604L5.00008 11.668M18.3334 10.0013C18.3334 14.6037 14.6025 18.3346 10.0001 18.3346C5.39771 18.3346 1.66675 14.6037 1.66675 10.0013C1.66675 5.39893 5.39771 1.66797 10.0001 1.66797C14.6025 1.66797 18.3334 5.39893 18.3334 10.0013Z" stroke="black" stroke-width="2" stroke-linecap="round" stroke-linejoin="round"/>
</g>
<defs>
<clipPath id="clip0_2463_1078">
<rect width="20" height="20" fill="white"/>
</clipPath>
</defs>
</svg>
