<svg width="252" height="42" viewBox="0 0 252 42" fill="none" xmlns="http://www.w3.org/2000/svg">
<g clip-path="url(#clip0_3422_3921)">
<path d="M37.6385 0.5625H4.84872C2.58506 0.5625 0.75 2.39756 0.75 4.66122V37.451C0.75 39.7147 2.58506 41.5498 4.84872 41.5498H37.6385C39.9022 41.5498 41.7373 39.7147 41.7373 37.451V4.66122C41.7373 2.39756 39.9022 0.5625 37.6385 0.5625Z" fill="#594AF1"/>
<path d="M58.2344 33.0066L67.3172 10.0538H72.0389L81.0561 33.0066H75.4162L71.088 21.3663C70.913 20.9072 70.7384 20.4154 70.5633 19.8907C70.3883 19.3661 70.2137 18.8305 70.0387 18.284C69.8637 17.7157 69.6891 17.1692 69.5141 16.6445C69.3612 16.098 69.23 15.5953 69.1206 15.1362L70.1043 15.1034C69.9731 15.6499 69.8202 16.1855 69.6452 16.7101C69.4923 17.2347 69.3284 17.7594 69.1534 18.284C69.0005 18.7868 68.8255 19.3005 68.6287 19.8251C68.432 20.3279 68.2463 20.8526 68.0713 21.3991L63.7431 33.0066H58.2344ZM62.5626 28.6128L64.3005 24.4157H74.8588L76.5639 28.6128H62.5626ZM88.9773 33.3673C87.6874 33.3673 86.5836 33.0941 85.6655 32.5476C84.7691 31.9792 84.0695 31.1704 83.567 30.1211C83.0858 29.0719 82.8456 27.8149 82.8456 26.3503V15.5953H88.1247V25.6289C88.1247 26.3285 88.2338 26.9296 88.4526 27.4324C88.6711 27.9352 88.999 28.3286 89.4363 28.6128C89.8733 28.8751 90.3979 29.0063 91.0102 29.0063C91.4693 29.0063 91.8845 28.9298 92.2563 28.7768C92.6497 28.6238 92.9776 28.4161 93.24 28.1538C93.524 27.8696 93.7425 27.5526 93.8957 27.2028C94.0486 26.8312 94.1253 26.4268 94.1253 25.9896V15.5953H99.4044V33.0066H94.4532L94.2236 29.4326L95.2073 29.0391C94.945 29.8698 94.5077 30.613 93.8957 31.2688C93.2834 31.9027 92.5514 32.4164 91.6988 32.8099C90.8463 33.1815 89.9388 33.3673 88.9773 33.3673ZM104.08 33.0066V15.5953H109.064L109.294 21.2679L108.31 20.1858C108.572 19.2459 108.999 18.4042 109.589 17.661C110.201 16.9178 110.911 16.3276 111.72 15.8904C112.529 15.4532 113.393 15.2346 114.311 15.2346C114.704 15.2346 115.065 15.2674 115.393 15.3329C115.742 15.3985 116.059 15.475 116.344 15.5625L114.901 21.3663C114.66 21.2133 114.332 21.093 113.917 21.0056C113.524 20.8963 113.108 20.8416 112.671 20.8416C112.19 20.8416 111.742 20.929 111.327 21.1039C110.911 21.2569 110.562 21.4865 110.278 21.7925C109.993 22.0986 109.764 22.4593 109.589 22.8746C109.436 23.2899 109.359 23.7599 109.359 24.2846V33.0066H104.08ZM126.463 33.3345C124.648 33.3345 123.031 32.9411 121.61 32.1541C120.211 31.3671 119.096 30.296 118.266 28.9407C117.457 27.5854 117.052 26.0334 117.052 24.2846C117.052 22.5358 117.457 20.9837 118.266 19.6284C119.096 18.2731 120.211 17.202 121.61 16.415C123.031 15.628 124.648 15.2346 126.463 15.2346C128.277 15.2346 129.884 15.628 131.283 16.415C132.704 17.202 133.819 18.2731 134.628 19.6284C135.436 20.9837 135.841 22.5358 135.841 24.2846C135.841 26.0334 135.436 27.5854 134.628 28.9407C133.819 30.296 132.704 31.3671 131.283 32.1541C129.884 32.9411 128.277 33.3345 126.463 33.3345ZM126.463 28.8095C127.25 28.8095 127.95 28.6128 128.562 28.2193C129.173 27.8259 129.655 27.2903 130.004 26.6126C130.354 25.935 130.518 25.1589 130.496 24.2846C130.518 23.4102 130.354 22.6341 130.004 21.9565C129.655 21.2569 129.173 20.7105 128.562 20.317C127.95 19.9235 127.25 19.7268 126.463 19.7268C125.676 19.7268 124.966 19.9235 124.332 20.317C123.72 20.7105 123.239 21.2569 122.889 21.9565C122.539 22.6341 122.375 23.4102 122.397 24.2846C122.375 25.1589 122.539 25.935 122.889 26.6126C123.239 27.2903 123.72 27.8259 124.332 28.2193C124.966 28.6128 125.676 28.8095 126.463 28.8095ZM154.463 33.0066L147.578 10.0538H153.25L156.693 22.1204C156.846 22.6669 156.977 23.2243 157.087 23.7927C157.218 24.3392 157.316 24.8638 157.382 25.3666C157.469 25.8694 157.535 26.3394 157.578 26.7766C157.622 27.1919 157.666 27.5417 157.71 27.8259H156.988C157.119 27.017 157.229 26.2957 157.316 25.6617C157.426 25.0278 157.546 24.4376 157.677 23.8911C157.808 23.3227 157.972 22.7325 158.169 22.1204L161.579 13.0377H166.038L169.383 22.1204C169.645 22.8418 169.864 23.5194 170.039 24.1534C170.214 24.7873 170.345 25.3994 170.432 25.9896C170.541 26.558 170.629 27.1263 170.694 27.6947L170.039 27.7931C170.082 27.3996 170.115 27.0389 170.137 26.711C170.159 26.3613 170.181 26.0334 170.203 25.7273C170.246 25.3994 170.29 25.0606 170.334 24.7108C170.378 24.3611 170.443 23.9785 170.53 23.5632C170.618 23.126 170.738 22.6341 170.891 22.0876L174.301 10.0538H179.843L172.957 33.0066H168.694L163.251 19.7923L163.874 19.8579L158.857 33.0066H154.463ZM187.934 33.3017C186.47 33.3017 185.158 32.9192 184 32.1541C182.863 31.3671 181.956 30.296 181.278 28.9407C180.601 27.5635 180.262 26.0115 180.262 24.2846C180.262 22.5139 180.601 20.9509 181.278 19.5956C181.956 18.2403 182.885 17.1801 184.065 16.415C185.246 15.628 186.59 15.2346 188.098 15.2346C188.929 15.2346 189.683 15.3548 190.361 15.5953C191.061 15.8357 191.672 16.1745 192.197 16.6117C192.722 17.0271 193.17 17.5189 193.541 18.0873C193.913 18.6338 194.186 19.224 194.361 19.8579L193.279 19.7268V15.5953H198.493V33.0066H193.181V28.8095L194.361 28.7768C194.186 29.3888 193.902 29.9681 193.509 30.5146C193.115 31.0611 192.634 31.542 192.066 31.9574C191.497 32.3727 190.864 32.7006 190.164 32.9411C189.464 33.1815 188.721 33.3017 187.934 33.3017ZM189.377 28.8751C190.186 28.8751 190.886 28.6893 191.476 28.3177C192.066 27.9461 192.525 27.4214 192.853 26.7438C193.181 26.0443 193.345 25.2245 193.345 24.2846C193.345 23.3446 193.181 22.5357 192.853 21.8581C192.525 21.1586 192.066 20.623 191.476 20.2514C190.886 19.8579 190.186 19.6612 189.377 19.6612C188.59 19.6612 187.902 19.8579 187.311 20.2514C186.743 20.623 186.295 21.1586 185.967 21.8581C185.639 22.5357 185.475 23.3446 185.475 24.2846C185.475 25.2245 185.639 26.0443 185.967 26.7438C186.295 27.4214 186.743 27.9461 187.311 28.3177C187.902 28.6893 188.59 28.8751 189.377 28.8751ZM203.155 33.0066V8.74219H208.401V33.0066H203.155ZM213.113 33.0066V8.74219H218.36V33.0066H213.113ZM231.015 33.3345C229.091 33.3345 227.419 32.952 225.998 32.1869C224.577 31.3999 223.473 30.3397 222.686 29.0063C221.899 27.651 221.506 26.1098 221.506 24.3829C221.506 23.0495 221.724 21.8253 222.162 20.7105C222.599 19.5956 223.211 18.6338 223.998 17.825C224.785 16.9943 225.714 16.3604 226.785 15.9232C227.878 15.4641 229.069 15.2346 230.359 15.2346C231.583 15.2346 232.698 15.4532 233.704 15.8904C234.731 16.3276 235.617 16.9396 236.36 17.7266C237.103 18.5135 237.671 19.4426 238.065 20.5137C238.458 21.5848 238.633 22.7544 238.589 24.0222L238.557 25.4322H224.686L223.932 22.4811H234.294L233.736 23.1041V22.4483C233.693 21.9018 233.518 21.4209 233.212 21.0056C232.928 20.5684 232.545 20.2296 232.064 19.9891C231.583 19.7486 231.037 19.6284 230.425 19.6284C229.572 19.6284 228.84 19.8033 228.228 20.153C227.638 20.4809 227.19 20.9728 226.883 21.6286C226.577 22.2625 226.424 23.0495 226.424 23.9894C226.424 24.9513 226.621 25.7929 227.015 26.5143C227.43 27.2138 228.02 27.7603 228.785 28.1538C229.572 28.5472 230.501 28.744 231.572 28.744C232.315 28.744 232.971 28.6347 233.54 28.4161C234.13 28.1975 234.764 27.8259 235.442 27.3012L237.901 30.7769C237.223 31.3671 236.502 31.8481 235.737 32.2197C234.971 32.5913 234.184 32.8645 233.376 33.0394C232.589 33.2362 231.802 33.3345 231.015 33.3345ZM243.375 33.0066V11.2014H248.621V33.0066H243.375ZM240.292 20.1858V15.5953H251.998V20.1858H240.292Z" fill="black" fill-opacity="0.8"/>
<path d="M21.1809 7.98438C23.4851 7.98438 25.4951 8.43933 27.2109 9.34925C28.9267 10.2592 30.2504 11.6117 31.1818 13.407C32.1378 15.1776 32.6158 17.3295 32.6158 19.8625V34.1752H27.836V27.5353H14.4524V34.1752H9.74609V19.8625C9.74609 17.3295 10.2118 15.1776 11.1433 13.407C12.0992 11.6117 13.4352 10.2592 15.151 9.34925C16.8668 8.43933 18.8768 7.98438 21.1809 7.98438ZM27.836 23.5144V19.4198C27.836 17.0344 27.2477 15.2391 26.0711 14.0341C24.8945 12.8045 23.2522 12.1897 21.1442 12.1897C19.0361 12.1897 17.3938 12.8045 16.2173 14.0341C15.0407 15.2391 14.4524 17.0344 14.4524 19.4198V23.5144H27.836Z" fill="white"/>
</g>
<defs>
<clipPath id="clip0_3422_3921">
<rect width="251.248" height="40.9873" fill="white" transform="translate(0.75 0.5625)"/>
</clipPath>
</defs>
</svg>
