<svg width="149" height="38" viewBox="0 0 149 38" fill="none" xmlns="http://www.w3.org/2000/svg">
<rect y="1.86914" width="34.2634" height="34.2634" rx="4.17505" fill="#1758FE"/>
<path d="M28.3151 21.1779L27.5757 18.4185L21.3512 20.0863L20.6455 17.4523C19.6372 13.6894 16.5453 11.6948 12.853 12.6842L11.999 12.913C8.30665 13.9023 6.62625 17.1757 7.63451 20.9386L9.07968 26.332L28.3151 21.1779Z" fill="white"/>
<path d="M42.1427 27V24.3981H47.5548C48.9859 24.3981 49.7144 24.0078 49.7144 23.2012V23.045C49.7144 22.5247 49.194 22.0823 48.1272 21.8482L45.6033 21.2757C43.0794 20.7033 41.8305 19.4544 41.8305 17.5289V17.1907C41.8305 14.7449 43.9901 13.5219 46.4359 13.5219H51.848V16.1239H46.6181C45.3431 16.1239 44.6926 16.4621 44.6926 17.1647V17.3208C44.6926 18.0493 45.213 18.3876 46.3839 18.6478L49.22 19.2983C51.5097 19.8186 52.5765 21.1196 52.5765 22.7588V23.0971C52.5765 25.4909 50.7292 27 47.4247 27H42.1427ZM60.855 27.3122C58.9556 27.3122 57.3944 26.6878 56.1194 25.4388C54.8445 24.1899 54.22 22.6027 54.22 20.7033V19.8186C54.22 17.9192 54.8445 16.332 56.1194 15.0831C57.3944 13.8342 58.9556 13.2097 60.855 13.2097C62.7284 13.2097 64.3156 13.8342 65.5905 15.0831C66.8655 16.332 67.4899 17.9192 67.4899 19.8186V20.7033C67.4899 22.6027 66.8655 24.1899 65.5905 25.4388C64.3156 26.6878 62.7284 27.3122 60.855 27.3122ZM60.855 24.7103C63.1707 24.7103 64.5758 23.1491 64.5758 20.6513V19.8707C64.5758 17.3728 63.1707 15.8116 60.855 15.8116C58.5393 15.8116 57.1342 17.3728 57.1342 19.8707V20.6513C57.1342 23.1491 58.5393 24.7103 60.855 24.7103ZM76.0885 27C72.1856 27 69.4536 24.5282 69.4536 20.7033V19.8186C69.4536 15.9938 72.1856 13.5219 76.0885 13.5219H79.393V16.1239H76.1146C73.8248 16.1239 72.3678 17.2687 72.3678 19.8707V20.6513C72.3678 23.2532 73.8248 24.3981 76.1146 24.3981H79.393V27H76.0885ZM81.8348 27V13.5219H84.6969V27H81.8348ZM83.2658 11.6746C82.199 11.6746 81.4185 10.9981 81.4185 10.0353V9.593C81.4185 8.63029 82.199 7.95378 83.2658 7.95378C84.3066 7.95378 85.0872 8.63029 85.0872 9.593V10.0353C85.0872 10.9981 84.3066 11.6746 83.2658 11.6746ZM93.8255 27C89.9225 27 87.1905 24.5282 87.1905 20.7033V19.8186C87.1905 15.9938 89.9225 13.5219 93.8255 13.5219H99.4196V27H93.8255ZM93.8515 24.3981H96.5575V16.1239H93.8515C91.5618 16.1239 90.1047 17.2687 90.1047 19.8707V20.6513C90.1047 23.2532 91.5618 24.3981 93.8515 24.3981ZM102.595 27V8.7864H105.458V27H102.595ZM114.586 27C110.683 27 107.951 24.5282 107.951 20.7033V19.8186C107.951 15.9938 110.683 13.5219 114.586 13.5219H117.891V16.1239H114.612C112.322 16.1239 110.865 17.2687 110.865 19.8707V20.6513C110.865 23.2532 112.322 24.3981 114.612 24.3981H117.891V27H114.586ZM126.161 27C122.258 27 119.526 24.5282 119.526 20.7033V19.8186C119.526 15.9938 122.258 13.5219 126.161 13.5219H131.755V27H126.161ZM126.187 24.3981H128.893V16.1239H126.187C123.897 16.1239 122.44 17.2687 122.44 19.8707V20.6513C122.44 23.2532 123.897 24.3981 126.187 24.3981ZM134.931 30.5386V13.5219H140.525C144.428 13.5219 147.16 15.9938 147.16 19.8186V20.7033C147.16 24.5282 144.428 27 140.525 27H137.793V30.5386H134.931ZM140.499 24.3981C142.789 24.3981 144.246 23.2532 144.246 20.6513V19.8707C144.246 17.2687 142.789 16.1239 140.499 16.1239H137.793V24.3981H140.499Z" fill="#26262A"/>
</svg>
