<svg width="187" height="34" viewBox="0 0 187 34" fill="none" xmlns="http://www.w3.org/2000/svg">
<path fill-rule="evenodd" clip-rule="evenodd" d="M5.84889 0.550049H27.0511C30.2814 0.550049 32.9 3.16869 32.9 6.39894V27.6012C32.9 30.8314 30.2814 33.4501 27.0511 33.4501H5.84889C2.61864 33.4501 0 30.8314 0 27.6012V6.39894C0 3.16869 2.61864 0.550049 5.84889 0.550049ZM26.4786 16.4411L27.1886 19.0908L8.7186 24.0398L7.33094 18.861C6.36279 15.2478 7.97633 12.1047 11.5217 11.1547L12.3417 10.935C15.8871 9.98502 18.856 11.9003 19.8241 15.5134L20.5018 18.0426L26.4786 16.4411Z" fill="#1758FE"/>
<path d="M49.471 27.5V24.1039H56.5349C58.4027 24.1039 59.3536 23.5945 59.3536 22.5417V22.338C59.3536 21.6588 58.6744 21.0814 57.282 20.7758L53.9878 20.0286C50.6936 19.2815 49.0635 17.6514 49.0635 15.1383V14.6968C49.0635 11.5045 51.8822 9.90829 55.0746 9.90829H62.1384V13.3044H55.3123C53.6482 13.3044 52.7992 13.7459 52.7992 14.6628V14.8666C52.7992 15.8175 53.4784 16.259 55.0066 16.5986L58.7084 17.4476C61.6969 18.1268 63.0893 19.8249 63.0893 21.9644V22.4059C63.0893 25.5303 60.6781 27.5 56.3651 27.5H49.471ZM65.2344 19.2815V18.1268C65.2344 15.6477 66.0495 13.5761 67.7135 11.946C69.3776 10.3159 71.4152 9.50078 73.8944 9.50078C76.3396 9.50078 78.4112 10.3159 80.0752 11.946C81.7393 13.5761 82.5544 15.6477 82.5544 18.1268V19.2815C82.5544 21.7606 81.7393 23.8322 80.0752 25.4624C78.4112 27.0925 76.3396 27.9075 73.8944 27.9075C71.4152 27.9075 69.3776 27.0925 67.7135 25.4624C66.0495 23.8322 65.2344 21.7606 65.2344 19.2815ZM78.7508 19.2136V18.1948C78.7508 14.9345 76.9169 12.8969 73.8944 12.8969C70.8719 12.8969 69.038 14.9345 69.038 18.1948V19.2136C69.038 22.4738 70.8719 24.5115 73.8944 24.5115C76.9169 24.5115 78.7508 22.4738 78.7508 19.2136ZM93.7773 27.5C88.6832 27.5 85.1173 24.2737 85.1173 19.2815V18.1268C85.1173 13.1346 88.6832 9.90829 93.7773 9.90829H98.0904V13.3044H93.8113C90.8228 13.3044 88.921 14.7987 88.921 18.1948V19.2136C88.921 22.6097 90.8228 24.1039 93.8113 24.1039H98.0904V27.5H93.7773ZM101.277 27.5V9.90829H105.013V27.5H101.277ZM103.145 7.49709C101.753 7.49709 100.734 6.61409 100.734 5.35759V4.78029C100.734 3.52369 101.753 2.64069 103.145 2.64069C104.504 2.64069 105.522 3.52369 105.522 4.78029V5.35759C105.522 6.61409 104.504 7.49709 103.145 7.49709ZM116.928 27.5C111.834 27.5 108.268 24.2737 108.268 19.2815V18.1268C108.268 13.1346 111.834 9.90829 116.928 9.90829H124.229V27.5H116.928ZM116.962 24.1039H120.494V13.3044H116.962C113.973 13.3044 112.071 14.7987 112.071 18.1948V19.2136C112.071 22.6097 113.973 24.1039 116.962 24.1039ZM128.374 27.5V3.72749H132.11V27.5H128.374ZM144.025 27.5C138.931 27.5 135.365 24.2737 135.365 19.2815V18.1268C135.365 13.1346 138.931 9.90829 144.025 9.90829H148.338V13.3044H144.059C141.07 13.3044 139.168 14.7987 139.168 18.1948V19.2136C139.168 22.6097 141.07 24.1039 144.059 24.1039H148.338V27.5H144.025ZM159.132 27.5C154.038 27.5 150.472 24.2737 150.472 19.2815V18.1268C150.472 13.1346 154.038 9.90829 159.132 9.90829H166.433V27.5H159.132ZM159.166 24.1039H162.698V13.3044H159.166C156.177 13.3044 154.275 14.7987 154.275 18.1948V19.2136C154.275 22.6097 156.177 24.1039 159.166 24.1039ZM170.578 32.1187V9.90829H177.88C182.974 9.90829 186.54 13.1346 186.54 18.1268V19.2815C186.54 24.2737 182.974 27.5 177.88 27.5H174.314V32.1187H170.578ZM177.846 24.1039C180.835 24.1039 182.736 22.6097 182.736 19.2136V18.1948C182.736 14.7987 180.835 13.3044 177.846 13.3044H174.314V24.1039H177.846Z" fill="#1758FE"/>
</svg>
