<svg width="1600" height="900" viewBox="0 0 1600 900" fill="none" xmlns="http://www.w3.org/2000/svg">
<g opacity="0.4">
<path d="M708.847 744.53C707.409 759.738 702.833 774.483 695.406 787.834C687.98 801.183 677.866 812.845 665.702 822.087C661.716 825.124 657.529 827.893 653.173 830.371C631.601 842.607 606.546 847.251 582.022 843.558C557.497 839.864 534.922 828.05 517.909 810.003C500.897 791.957 490.433 768.724 488.191 744.025C485.951 719.325 492.062 694.588 505.549 673.775C519.036 652.962 539.116 637.276 562.576 629.229C586.035 621.183 611.516 621.24 634.938 629.394C658.361 637.549 678.369 653.326 691.76 674.201C705.15 695.076 711.149 719.841 708.795 744.53H708.847Z" fill="#F6F8FF" stroke="#1758FE" stroke-width="2"/>
<path fill-rule="evenodd" clip-rule="evenodd" d="M821.341 1096.59L1368.36 770.999L821.341 1096.59Z" fill="#F6F8FF"/>
<path d="M821.341 1096.59L1368.36 770.999" stroke="#1758FE" stroke-width="2"/>
<path fill-rule="evenodd" clip-rule="evenodd" d="M317.305 56.1992L164.383 287.731L317.305 56.1992Z" fill="#F6F8FF"/>
<path d="M317.305 56.1992L164.383 287.731" stroke="#1758FE" stroke-width="2"/>
<path d="M99.7011 448.821L58.2305 451.893L101.582 482.094L99.7011 448.821Z" fill="#F6F8FF" stroke="#1758FE" stroke-width="2"/>
<path d="M400.535 576.354C390.834 679.201 342.51 774.547 265.302 843.178C257.546 850.081 249.545 856.674 241.296 862.955C226.572 874.189 211.109 884.417 195.011 893.571C122.828 934.65 39.8124 952.677 -42.9063 945.241L-45.8229 944.982C-108.947 938.964 -169.81 918.362 -223.612 884.8C-277.413 851.241 -322.68 805.637 -355.843 751.59C-360.446 744.066 -364.834 736.386 -369.011 728.551C-398.665 672.266 -414.818 609.855 -416.194 546.249C-417.568 482.646 -404.127 419.594 -376.932 362.08C-305.209 210.798 -144.383 113.153 31.9238 129.98C257.035 151.448 422.021 351.312 400.535 576.354Z" fill="#F6F8FF" stroke="#1758FE" stroke-width="2"/>
<path d="M2150.76 672.582C2140.94 774.486 2108.91 873.005 2056.94 961.229C2005 1049.45 1934.38 1125.24 1850.03 1183.29C1765.68 1241.33 1669.64 1280.23 1568.66 1297.24C1467.7 1314.25 1364.23 1308.98 1265.5 1281.78C1166.79 1254.57 1075.22 1206.11 997.203 1139.78C919.216 1073.46 856.649 990.873 813.941 897.822C771.262 804.769 749.42 703.504 750.012 601.13C750.604 498.753 773.571 397.742 817.344 305.186C940.348 45.7957 1216.16 -121.627 1518.52 -92.7767C1904.58 -55.9661 2187.67 286.722 2150.76 672.582Z" fill="#F6F8FF" stroke="#1758FE" stroke-width="2"/>
<path d="M907.245 -231.745C901.525 -172.299 882.87 -114.823 852.582 -63.3497C822.296 -11.8782 781.112 32.3434 731.924 66.2102C682.734 100.079 626.73 122.773 567.839 132.703C508.949 142.631 448.6 139.554 391.026 123.686C333.45 107.817 280.046 79.5436 234.556 40.8481C189.067 2.15076 152.596 -46.0298 127.704 -100.316C102.809 -154.601 90.0952 -213.676 90.4542 -273.397C90.8131 -333.118 104.235 -392.036 129.778 -446.019C201.502 -597.336 362.31 -694.946 538.634 -678.12C763.694 -656.651 928.731 -456.787 907.245 -231.745Z" fill="#F6F8FF" stroke="#1758FE" stroke-width="2"/>
<path d="M1054.46 396.595L1065 377.422C1069.44 367.851 1073.37 358.058 1076.81 348.083C1082.12 332.431 1080.26 310.116 1103.54 289.044C1126.82 267.972 1092.39 273.788 1080.76 283.505C1071.06 291.598 1063.17 314.569 1053.53 319.746C1051.32 316.628 1049.57 313.21 1048.35 309.598L1027.26 210.78C1026.95 209.197 1026.09 207.777 1024.83 206.781C1023.55 205.787 1021.96 205.282 1020.36 205.361L1016.49 205.482C1015.56 205.532 1014.64 205.777 1013.8 206.201C1012.97 206.626 1012.23 207.22 1011.64 207.946C1011.04 208.673 1010.61 209.515 1010.36 210.419C1010.11 211.324 1010.05 212.269 1010.19 213.196C1013.44 234.337 1024.71 297.242 1023.57 297.276L1021.24 298.381L988.896 198.285C988.447 196.704 987.429 195.346 986.048 194.466C984.65 193.588 982.993 193.251 981.371 193.522L976.194 194.385C975.296 194.526 974.434 194.849 973.674 195.336C972.898 195.821 972.242 196.458 971.724 197.208C971.224 197.957 970.861 198.805 970.689 199.697C970.516 200.587 970.533 201.506 970.723 202.393C975.693 225.415 998.94 302.022 997.766 302.091L994.919 303.058L959.833 220.22C959.35 218.57 958.246 217.17 956.744 216.309C955.26 215.448 953.5 215.193 951.826 215.595L947.701 216.613C946.838 216.824 946.027 217.202 945.32 217.724C944.612 218.247 944.008 218.907 943.542 219.663C943.093 220.42 942.783 221.259 942.645 222.134C942.507 223.007 942.558 223.899 942.765 224.759L974.33 306.25L971.431 308.08L938.365 249.213C937.726 247.698 936.553 246.469 935.068 245.756C933.601 245.044 931.91 244.899 930.322 245.347L928.355 245.934C926.664 246.429 925.249 247.56 924.386 249.087C923.523 250.614 923.281 252.418 923.73 254.114C926.905 266.195 942.714 291.547 951.912 317.968C959.109 338.436 959.609 354.831 971.482 379.614C976.487 390.124 986.014 402.601 991.208 409.556" fill="#F6F8FF"/>
<path d="M1054.46 396.595L1065 377.422C1069.44 367.851 1073.37 358.058 1076.81 348.083C1082.12 332.431 1080.26 310.116 1103.54 289.044C1126.82 267.972 1092.39 273.788 1080.76 283.505C1071.06 291.598 1063.17 314.569 1053.53 319.746C1051.32 316.628 1049.57 313.21 1048.35 309.598L1027.26 210.78C1026.95 209.197 1026.09 207.777 1024.83 206.781C1023.55 205.787 1021.96 205.282 1020.36 205.361L1016.49 205.482C1015.56 205.532 1014.64 205.777 1013.8 206.201C1012.97 206.626 1012.23 207.22 1011.64 207.946C1011.04 208.673 1010.61 209.515 1010.36 210.419C1010.11 211.324 1010.05 212.269 1010.19 213.196C1013.44 234.337 1024.71 297.242 1023.57 297.276L1021.24 298.381L988.896 198.285C988.447 196.704 987.429 195.346 986.048 194.466C984.65 193.588 982.993 193.251 981.371 193.522L976.194 194.385C975.296 194.526 974.434 194.849 973.674 195.336C972.898 195.821 972.242 196.458 971.724 197.208C971.224 197.957 970.861 198.805 970.689 199.697C970.516 200.587 970.533 201.506 970.723 202.393C975.693 225.415 998.94 302.022 997.766 302.091L994.919 303.058L959.833 220.22C959.35 218.57 958.246 217.17 956.744 216.309C955.26 215.448 953.5 215.193 951.826 215.595L947.701 216.613C946.838 216.824 946.027 217.202 945.32 217.724C944.612 218.247 944.008 218.907 943.542 219.663C943.093 220.42 942.783 221.259 942.645 222.134C942.507 223.007 942.558 223.899 942.765 224.759L974.33 306.25L971.431 308.08L938.365 249.213C937.726 247.698 936.553 246.469 935.068 245.756C933.601 245.044 931.91 244.899 930.322 245.347L928.355 245.934C926.664 246.429 925.249 247.56 924.386 249.087C923.523 250.614 923.281 252.418 923.73 254.114C926.905 266.195 942.714 291.547 951.912 317.968C959.109 338.436 959.609 354.831 971.482 379.614C976.487 390.124 986.014 402.601 991.208 409.556" stroke="#1758FE" stroke-width="2"/>
<path d="M1654.06 961.839C1577.32 1005.36 1488.56 1022.91 1401.01 1011.9C1313.48 1000.88 1231.83 961.885 1168.25 900.712L1173.19 774.16L1014.76 747.997C991.377 741.573 971.047 727.027 957.431 706.966C943.814 686.906 937.791 662.648 940.449 638.547L953.41 390.138L1078.58 398.767L1082.03 430.383L1101.38 597.232C1101.38 597.232 1232.33 613.61 1411.04 659.36C1585 703.903 1636.23 858.378 1654.06 961.839Z" fill="#F6F8FF" stroke="#1758FE" stroke-width="2"/>
<path d="M1517.76 504.462C1565.74 443.296 1558.91 357.842 1502.49 313.595C1446.09 269.348 1361.46 283.062 1313.48 344.228C1265.51 405.393 1272.34 490.847 1328.76 535.094C1385.17 579.342 1469.79 565.627 1517.76 504.462Z" fill="#F6F8FF" stroke="#1758FE" stroke-width="2"/>
<path d="M1328.64 708.824C1319.22 702.004 1312.28 692.3 1308.88 681.184C1305.46 670.067 1305.77 658.141 1309.74 647.214L1372.04 476.154C1374.16 469.214 1377.68 462.781 1382.38 457.243C1387.06 451.706 1392.84 447.181 1399.33 443.944C1405.83 440.706 1412.91 438.825 1420.16 438.413C1427.4 438 1434.65 439.067 1441.47 441.547C1448.3 444.027 1454.53 447.87 1459.83 452.838C1465.11 457.809 1469.34 463.802 1472.24 470.457C1475.14 477.11 1476.66 484.284 1476.69 491.541C1476.73 498.798 1475.3 505.988 1472.47 512.671L1410.15 683.749C1407.3 691.504 1402.71 698.497 1396.72 704.18C1390.73 709.863 1383.5 714.081 1375.61 716.506C1367.71 718.929 1359.36 719.491 1351.21 718.15C1343.07 716.81 1335.33 713.6 1328.64 708.773V708.824Z" fill="#F6F8FF" stroke="#1758FE" stroke-width="2"/>
<path d="M1339.21 613.442L1328.86 609.593C1316.81 605.123 1305.9 598.054 1296.91 588.889C1287.9 579.723 1281.05 568.688 1276.79 556.567C1272.54 544.446 1271.02 531.537 1272.34 518.761C1273.65 505.984 1277.75 493.653 1284.36 482.644L1317.15 428.109C1327.73 410.498 1344.18 397.176 1363.61 390.486C1383.03 383.795 1404.19 384.162 1423.38 391.523C1445.02 399.829 1462.47 416.391 1471.91 437.567C1481.33 458.744 1481.97 482.798 1473.67 504.441L1451.23 562.824C1442.98 584.312 1426.6 601.68 1405.62 611.157C1384.65 620.633 1360.78 621.454 1339.21 613.442Z" fill="#F6F8FF" stroke="#1758FE" stroke-width="2"/>
<path fill-rule="evenodd" clip-rule="evenodd" d="M1347.48 459.053L1302.59 495.501L1320.21 508.738" fill="#F6F8FF"/>
<path d="M1347.48 459.053L1302.59 495.501L1320.21 508.738" stroke="#1758FE" stroke-width="2" stroke-linecap="square"/>
<path d="M1358.89 484.8C1364.12 484.8 1368.37 480.558 1368.37 475.325C1368.37 470.093 1364.12 465.851 1358.89 465.851C1353.66 465.851 1349.42 470.093 1349.42 475.325C1349.42 480.558 1353.66 484.8 1358.89 484.8Z" fill="#F6F8FF" stroke="#1758FE" stroke-width="2"/>
<path d="M1319.49 464.868C1324.72 464.868 1328.97 460.626 1328.97 455.394C1328.97 450.161 1324.72 445.919 1319.49 445.919C1314.26 445.919 1310.02 450.161 1310.02 455.394C1310.02 460.626 1314.26 464.868 1319.49 464.868Z" fill="#F6F8FF" stroke="#1758FE" stroke-width="2"/>
<path d="M1606.72 758.696C1606.72 758.696 1563.02 868.094 1477.9 819.496C1336.99 739.022 1365.93 633.197 1405.66 584.789C1421.49 565.512 1443.63 556.969 1466.74 549.962C1399.55 490.716 1432.58 443.533 1432.58 443.533C1432.58 443.533 1252.89 431.988 1311 346.751C1369.11 261.515 1472.9 272.68 1527.92 309.699C1655.8 395.781 1612.27 483.52 1641.46 515.826C1806.91 699.157 1606.72 758.696 1606.72 758.696Z" fill="#F6F8FF" stroke="#1758FE" stroke-width="2"/>
<path d="M1485.62 557.472C1504.2 546.177 1510.1 521.961 1498.8 503.384C1487.51 484.808 1463.3 478.906 1444.71 490.199L1414.13 508.795C1395.56 520.09 1389.66 544.304 1400.95 562.882C1412.25 581.459 1436.47 587.361 1455.04 576.067L1485.62 557.472Z" fill="#F6F8FF" stroke="#1758FE" stroke-width="2"/>
<path fill-rule="evenodd" clip-rule="evenodd" d="M1477.26 518.176L1433.87 544.529L1477.26 518.176Z" fill="#F6F8FF"/>
<path d="M1477.26 518.176L1433.87 544.529" stroke="#1758FE" stroke-width="2" stroke-linecap="square"/>
<path d="M1346.36 535.431C1346.81 541.461 1344.86 547.427 1340.92 552.014C1336.97 556.601 1331.38 559.437 1325.34 559.894C1319.32 560.351 1313.34 558.396 1308.77 554.454C1304.18 550.514 1301.33 544.913 1300.88 538.883C1299.92 526.319 1312.64 526.44 1325.18 525.473C1337.73 524.507 1345.39 522.867 1346.36 535.431Z" fill="#F6F8FF" stroke="#1758FE" stroke-width="2"/>
<path d="M762.231 43.4856L748.01 54.8585C733.286 66.0916 717.823 76.3204 701.725 85.4739C654.046 112.496 601.429 129.673 546.989 135.988C492.551 142.301 437.398 137.622 384.801 122.228C332.203 106.834 283.232 81.0404 240.786 46.3711C198.342 11.7035 163.288 -31.1322 137.703 -79.5975C202.696 -127.367 311.507 -184.439 450.692 -172.79C683.5 -153.202 762.231 43.4856 762.231 43.4856Z" fill="#F6F8FF" stroke="#1758FE" stroke-width="2"/>
<path d="M329.934 770.142C311.363 796.964 289.668 821.483 265.303 843.178C257.548 850.081 249.547 856.673 241.298 862.955C226.573 874.188 211.11 884.417 195.012 893.571C171.01 907.227 145.684 918.41 119.423 926.947L-42.9049 945.241L-45.8215 944.982C-108.946 938.964 -169.809 918.361 -223.61 884.8C-277.412 851.239 -322.679 805.637 -355.842 751.59C-294.49 639.086 -184.885 523.234 9.71429 495.259C195.236 468.596 297.196 684.75 329.934 770.142Z" fill="#F6F8FF" stroke="#1758FE" stroke-width="2"/>
<path d="M34.5346 592.044L32.4637 592.182C12.7069 593.086 -6.59949 586.107 -21.21 572.781C-35.8222 559.454 -44.5426 540.869 -45.4556 521.114L-57.5361 259.071C-57.99 249.289 -56.5127 239.513 -53.1871 230.3C-49.8615 221.09 -44.7549 212.623 -38.1589 205.385C-24.8359 190.768 -6.25089 182.042 13.5059 181.126C33.2627 180.211 52.5743 187.182 67.1917 200.505C81.8091 213.828 90.5347 232.411 91.451 252.168L103.532 514.194C104.438 533.602 97.7346 552.596 84.8482 567.136C71.9617 581.677 53.91 590.613 34.5346 592.044Z" fill="#F6F8FF" stroke="#1758FE" stroke-width="2"/>
<path d="M78.6639 455.017L92.1768 451.565C107.876 447.478 122.483 439.983 134.959 429.613C147.435 419.241 157.474 406.249 164.36 391.561C171.247 376.871 174.813 360.846 174.804 344.622C174.797 328.399 171.214 312.377 164.315 297.694L130.092 224.952C119.033 201.471 100.06 182.632 76.498 171.746C52.9376 160.858 26.2949 158.616 1.24512 165.412C-27.0181 173.087 -51.0755 191.67 -65.6394 217.079C-80.2016 242.486 -84.0795 272.639 -76.4152 300.904L-55.7058 377.149C-48.0658 405.2 -29.6723 429.109 -4.51727 443.687C20.6378 458.264 50.5267 462.336 78.6639 455.017Z" fill="#F6F8FF" stroke="#1758FE" stroke-width="2"/>
<path d="M-68.7328 405.96C-50.9175 419.585 -25.4311 416.189 -11.8077 398.375C1.81736 380.562 -1.57899 355.075 -19.3926 341.45L-37.679 327.464C-55.4925 313.839 -80.979 317.236 -94.604 335.049C-108.229 352.863 -104.833 378.349 -87.0192 391.974L-68.7328 405.96Z" fill="#F6F8FF" stroke="#1758FE" stroke-width="2"/>
<path d="M184.922 373.39C195.449 417.139 188.374 481.303 135.392 494.713C82.4103 508.122 16.6406 465.754 5.59558 422.092C-5.44945 378.429 6.64831 354.044 59.6645 340.617C112.681 327.191 171.167 316.318 184.922 373.39Z" fill="#F6F8FF" stroke="#1758FE" stroke-width="2"/>
<path d="M53.393 380.142C52.5232 388.034 54.784 395.95 59.6887 402.194C64.5917 408.436 71.7502 412.507 79.6232 413.531C87.4963 414.554 95.4556 412.45 101.794 407.668C108.132 402.888 112.341 395.81 113.519 387.96C115.677 371.358 98.7812 370.702 82.1791 368.458C65.5771 366.215 55.5503 363.54 53.393 380.142Z" fill="#F6F8FF" stroke="#1758FE" stroke-width="2"/>
<path d="M48.2834 314.453C54.5549 314.453 59.6391 309.368 59.6391 303.097C59.6391 296.825 54.5549 291.741 48.2834 291.741C42.0119 291.741 36.9277 296.825 36.9277 303.097C36.9277 309.368 42.0119 314.453 48.2834 314.453Z" fill="#F6F8FF" stroke="#1758FE" stroke-width="2"/>
<path d="M127.723 292.021C133.994 292.021 139.079 286.937 139.079 280.665C139.079 274.394 133.994 269.31 127.723 269.31C121.451 269.31 116.367 274.394 116.367 280.665C116.367 286.937 121.451 292.021 127.723 292.021Z" fill="#F6F8FF" stroke="#1758FE" stroke-width="2"/>
<path d="M-75.5435 936.408L-30.1208 966.868C-30.1208 966.868 -32.1399 1075.21 15.509 1069.43C15.509 1069.43 15.6989 1086.55 25.3805 1088.19C35.0622 1089.83 61.4495 1049.41 61.4495 1049.41C61.4495 1049.41 97.691 1035.74 104.853 1000.75C112.015 965.747 113.327 883.081 102.144 876.851C90.9604 870.621 -19.3691 867.895 -19.3691 867.895C-19.3691 867.895 -65.1715 873.452 -75.5435 936.408Z" fill="#F6F8FF" stroke="#1758FE" stroke-width="2"/>
<path fill-rule="evenodd" clip-rule="evenodd" d="M1.08493 854.054L-182.073 786.438L1.08493 854.054Z" fill="#F6F8FF"/>
<path d="M1.08493 854.054L-182.073 786.438" stroke="#1758FE" stroke-width="2" stroke-linecap="square"/>
<path fill-rule="evenodd" clip-rule="evenodd" d="M-75.8174 941.1C-75.8174 941.1 -80.5978 875.33 4.41445 855.069L-75.8174 941.1Z" fill="#F6F8FF"/>
<path d="M-75.8174 941.1C-75.8174 941.1 -80.5978 875.33 4.41445 855.069" stroke="#1758FE" stroke-width="2" stroke-linecap="square"/>
<path fill-rule="evenodd" clip-rule="evenodd" d="M95.4648 263.23L120.661 322.546L99.6067 331.623" fill="#F6F8FF"/>
<path d="M95.4648 263.23L120.661 322.546L99.6067 331.623" stroke="#1758FE" stroke-width="2" stroke-linecap="square"/>
</g>
</svg>
