<?xml version="1.0" encoding="UTF-8" standalone="no"?>
<!-- Generator: Adobe Illustrator 26.0.1, SVG Export Plug-In . SVG Version: 6.00 Build 0)  -->

<svg
   version="1.1"
   id="Layer_1"
   x="0px"
   y="0px"
   viewBox="0 0 320 64"
   xml:space="preserve"
   sodipodi:docname="zkCloudWorker-logo-horizontal.svg"
   width="320"
   height="64"
   inkscape:version="1.1.2 (0a00cf5339, 2022-02-04)"
   xmlns:inkscape="http://www.inkscape.org/namespaces/inkscape"
   xmlns:sodipodi="http://sodipodi.sourceforge.net/DTD/sodipodi-0.dtd"
   xmlns="http://www.w3.org/2000/svg"
   xmlns:svg="http://www.w3.org/2000/svg"><defs
   id="defs15" /><sodipodi:namedview
   id="namedview13"
   pagecolor="#ffffff"
   bordercolor="#666666"
   borderopacity="1.0"
   inkscape:pageshadow="2"
   inkscape:pageopacity="0.0"
   inkscape:pagecheckerboard="0"
   showgrid="false"
   fit-margin-top="0"
   fit-margin-left="0"
   fit-margin-right="0"
   fit-margin-bottom="0"
   inkscape:zoom="0.74316406"
   inkscape:cx="341.78187"
   inkscape:cy="399.64257"
   inkscape:window-width="1920"
   inkscape:window-height="1012"
   inkscape:window-x="0"
   inkscape:window-y="0"
   inkscape:window-maximized="1"
   inkscape:current-layer="g10" />
<style
   type="text/css"
   id="style2">
	.st0{fill:#F9ECDE;}
	.st1{fill:#F15B22;}
	.st2{fill:#FFFFFF;}
	.st3{fill:#010101;}
	.st4{fill:none;stroke:#7D7D7D;stroke-miterlimit:10;}
	.st5{fill:#383838;}
</style>
<g
   id="g10"
   transform="translate(363.51986,370.80755)">
	
	
	<g
   id="g835"
   transform="matrix(0.07477346,0,0,0.07381124,-336.20337,-343.10182)"
   style="stroke-width:13.4607"><path
     class="st1"
     d="m -340.84941,224.04802 c -63.4,-112.3 -0.2,-272.999998 150,-288.499998 92.300005,-9.5 166.200005,33.4 227.900005,96.7 28.9,29.6 50.6,66.2 75.399995,99.699998 16.1,21.9 30.1,45.7 48.1,65.9 40.5,45.2 97.7,57.5 148.5,34.5 48.1,-21.8 76.5,-70.8 71.6,-123.8 -5,-54.399998 -45.8,-98.6999979 -103.3,-113.0999979 -47.4,-11.9000001 -89.6,3.4 -134.1,26.2999999 -8.8,-46.1 -22.4,-89 -60.599995,-118 -40.8,-30.900002 -82.20000008,-29.700002 -123.4,1.8 0.4,-44.000002 33.7999999,-83.100002 76.3,-91.300002 61,-11.8 112.399995,28.6 146.899995,115.700002 2.5,-0.2 5.3,0.2 7.6,-0.7 100.7,-38.100002 191,-14.7 254.1,65.9000001 60.6,77.2999999 62,183.4999979 3.6,267.0999979 -84.4,120.9 -232.6,133.5 -335.1,26.6 -28.099995,-29.3 -48.799995,-65.5 -75.199995,-96.6 -31.5000001,-37.1 -60.4,-79.6 -99.5,-106.699998 -113.300005,-78.5999999 -238.800005,-25.4 -272.900005,110.699998 -2.2,8.7 -3.7,17.3 -5.9,27.8 z"
     id="path4"
     style="stroke-width:13.4607" /><path
     class="st1"
     d="m -361.54941,-20.451978 c -18.9,-123.000002 82.1,-214.300002 216.2,-199.400002 32.3,-90.6 88.800005,-156.3 192.500005,-155.5 95.799995,0.7 161.299995,52.8 200.699995,141.6 79.2,-23.5 144.1,2.8 196.3,63.1 32,36.9 44.6,81.100002 37.7,137.800002 -66,-106.500002 -150.8,-150.400002 -268.7,-108.100002 -32.2,-77 -86.7,-123.8 -172.399995,-122.5 -64.2,1 -106.3,41.9 -142.200005,131.4 -113,-31 -200.8,2.5 -260.1,111.600002 z"
     id="path6"
     style="stroke-width:13.4607" /><path
     class="st1"
     d="m 1.3505949,462.94802 c -34.0999999,14.8 -64.3999999,12.4 -94.4999999,5.5 -76.600005,-17.4 -137.100005,-57.8 -174.100005,-128.3 -29.2,-55.6 -26.3,-110.9 12.5,-161.4 36.7,-47.8 94.7,-62.7 145.5,-30.9 35.200005,22.1 65.600005,53.7 93.700005,85 32.6,36.3 57.7,79.6 91,115.2 52.999995,56.6 120.699995,82.2 198.799995,78.4 7,-0.3 14,0 25.8,0.1 -39.1,48.3 -86.1,68.6 -143.2,64.7 -62.099995,-4.2 -112.599995,-34.9 -155.5999951,-77.1 -29.0999999,-28.5 -52.9999999,-62.1 -80.4999999,-92.2 -14.5,-15.9 -30.000005,-32.9 -48.700005,-42.4 -12.6,-6.4 -34.2,-5.6 -46.9,1.2 -17.7,9.4 -20.8,32.5 -9.7,48.2 17.9,25.5 37.7,51.8 62.4,70 29.600005,21.8 65.100005,35.4 98.200005,52.4 6.8,3.8 13.9999999,6.6 25.2999999,11.6 z"
     id="path8"
     style="stroke-width:13.4607" /></g>
<g
   id="g949"
   transform="matrix(0.18807067,0,0,0.18807067,-333.17723,-510.24337)"
   style="stroke-width:5.31715">
	<path
   class="st1"
   d="m 376.5,968.3 c 0,2.7 -0.9,4.9 -2.6,6.4 -1.7,1.6 -4.4,2.3 -7.8,2.3 h -62.3 c -3.1,0 -5.7,-1 -7.6,-3 -2,-2 -3,-4.3 -3,-7.1 0,-2.9 1.1,-5.6 3.4,-8.2 l 47.9,-55.4 h -41.6 c -3.5,0 -6.1,-0.7 -7.8,-2.2 -1.7,-1.5 -2.6,-3.7 -2.6,-6.5 0,-2.9 0.9,-5 2.6,-6.5 1.7,-1.5 4.3,-2.2 7.8,-2.2 h 60.2 c 3.2,0 5.8,1 7.7,2.9 1.9,1.9 2.9,4.3 2.9,7.2 0,3 -1.1,5.7 -3.2,8.2 l -48.1,55.4 H 366 c 7.1,-0.1 10.5,2.8 10.5,8.7 z"
   id="path923"
   style="stroke-width:5.31715" />
	<path
   class="st1"
   d="m 476.3,967 c 0,2.9 -1,5.4 -3.1,7.6 -2.1,2.2 -4.4,3.4 -7.2,3.4 -2.7,0 -5.3,-1.1 -7.6,-3.4 L 414.8,935.1 V 967 c 0,3.6 -1.1,6.3 -3.4,8.2 -2.3,1.9 -5,2.8 -8.4,2.8 -3.4,0 -6.1,-0.9 -8.3,-2.8 -2.2,-1.9 -3.3,-4.6 -3.3,-8.2 V 855.7 c 0,-3.6 1.1,-6.3 3.3,-8.2 2.2,-1.9 4.9,-2.8 8.3,-2.8 3.4,0 6.2,0.9 8.4,2.8 2.2,1.9 3.4,4.6 3.4,8.2 v 70.1 l 39.9,-38.2 c 2.2,-2.2 4.8,-3.4 7.6,-3.4 2.9,0 5.3,1.1 7.5,3.2 2.1,2.1 3.2,4.6 3.2,7.5 0,2.9 -1.2,5.5 -3.5,7.8 l -29.3,27.2 32.4,29.1 c 2.4,2.3 3.7,5 3.7,8 z"
   id="path925"
   style="stroke-width:5.31715" />
	<path
   class="st1"
   d="m 504.7,972.8 c -6.9,-3.9 -12.2,-9.3 -15.9,-16.4 -3.7,-7.1 -5.6,-15.3 -5.6,-24.8 0,-9.4 2,-17.8 5.9,-25.1 3.9,-7.3 9.4,-12.9 16.5,-16.9 7.1,-4 15.2,-6 24.4,-6 4.8,0 9.7,0.7 14.6,2.1 4.9,1.4 9.2,3.2 13,5.6 4,2.6 6,5.9 6,9.9 0,2.7 -0.7,4.9 -2,6.6 -1.3,1.7 -3,2.5 -5.1,2.5 -1.4,0 -2.8,-0.3 -4.3,-0.9 -1.5,-0.6 -3,-1.4 -4.5,-2.2 -2.7,-1.6 -5.3,-2.9 -7.8,-3.8 -2.5,-0.9 -5.3,-1.4 -8.6,-1.4 -7.7,0 -13.6,2.5 -17.8,7.6 -4.2,5 -6.2,12.3 -6.2,21.7 0,9.3 2.1,16.5 6.2,21.5 4.2,5 10.1,7.5 17.8,7.5 3.1,0 5.9,-0.5 8.3,-1.4 2.4,-0.9 5.1,-2.2 8.1,-3.8 1.9,-1.1 3.5,-2 4.8,-2.5 1.4,-0.6 2.7,-0.8 4.1,-0.8 2,0 3.7,0.9 5,2.6 1.4,1.7 2.1,3.9 2.1,6.5 0,2.1 -0.5,3.9 -1.4,5.5 -0.9,1.6 -2.5,3 -4.6,4.2 -3.9,2.5 -8.3,4.4 -13.4,5.9 -5.1,1.4 -10.3,2.1 -15.7,2.1 -9,-0.1 -17,-2 -23.9,-5.8 z"
   id="path927"
   style="stroke-width:5.31715" />
	<path
   class="st1"
   d="m 580.6,975.3 c -2.2,-1.9 -3.3,-4.7 -3.3,-8.3 V 855.7 c 0,-3.6 1.1,-6.3 3.3,-8.2 2.2,-1.9 4.9,-2.8 8.3,-2.8 3.4,0 6.2,0.9 8.4,2.8 2.2,1.9 3.4,4.6 3.4,8.2 V 967 c 0,3.6 -1.1,6.4 -3.4,8.3 -2.2,1.9 -5,2.9 -8.4,2.9 -3.4,0 -6.1,-1 -8.3,-2.9 z"
   id="path929"
   style="stroke-width:5.31715" />
	<path
   class="st1"
   d="m 639.9,972.8 c -7,-3.9 -12.5,-9.4 -16.3,-16.6 -3.9,-7.2 -5.8,-15.6 -5.8,-25.2 0,-9.6 1.9,-17.9 5.8,-25.1 3.9,-7.1 9.3,-12.6 16.3,-16.5 7,-3.9 15.2,-5.8 24.5,-5.8 9.3,0 17.5,1.9 24.5,5.8 7,3.9 12.4,9.4 16.2,16.5 3.8,7.1 5.7,15.5 5.7,25.1 0,9.6 -1.9,18 -5.7,25.2 -3.8,7.2 -9.2,12.7 -16.2,16.6 -7,3.9 -15.2,5.8 -24.5,5.8 -9.3,-0.1 -17.5,-2 -24.5,-5.8 z M 681.5,953 c 4,-5 6,-12.3 6,-22 0,-9.6 -2,-16.9 -6,-21.9 -4,-5 -9.7,-7.5 -17.2,-7.5 -7.5,0 -13.2,2.5 -17.2,7.5 -4,5 -6.1,12.3 -6.1,21.9 0,9.7 2,17 6,22 4,5 9.7,7.5 17.2,7.5 7.6,-0.1 13.4,-2.5 17.3,-7.5 z"
   id="path931"
   style="stroke-width:5.31715" />
	<path
   class="st1"
   d="m 808.7,887 c 2.1,2 3.2,4.7 3.2,8 v 72.3 c 0,3.2 -1.1,5.8 -3.3,7.8 -2.2,2 -5,3 -8.5,3 -3.4,0 -6,-0.9 -8,-2.8 -2,-1.9 -3,-4.4 -3,-7.6 V 963 c -2.9,5 -6.7,8.8 -11.6,11.5 -4.8,2.7 -10.3,4 -16.4,4 -22.4,0 -33.6,-12.6 -33.6,-37.7 V 895 c 0,-3.4 1.1,-6 3.2,-8 2.1,-2 4.9,-3 8.4,-3 3.6,0 6.5,1 8.6,3 2.1,2 3.2,4.7 3.2,8 v 46 c 0,6.5 1.3,11.2 3.9,14.4 2.6,3.1 6.7,4.7 12.3,4.7 6.5,0 11.7,-2.1 15.6,-6.4 3.9,-4.3 5.9,-10 5.9,-17.1 V 895 c 0,-3.4 1.1,-6 3.2,-8 2.1,-2 4.9,-3 8.4,-3 3.5,0 6.4,1 8.5,3 z"
   id="path933"
   style="stroke-width:5.31715" />
	<path
   class="st1"
   d="m 918.9,847.7 c 2.2,2 3.4,4.6 3.4,7.8 V 967 c 0,3.4 -1.1,6 -3.2,8 -2.1,2 -4.9,3 -8.4,3 -3.5,0 -6.3,-1 -8.4,-3 -2.1,-2 -3.2,-4.7 -3.2,-8 v -4.7 c -2.7,5.1 -6.7,9.1 -11.8,11.9 -5.2,2.9 -11,4.3 -17.6,4.3 -7.8,0 -14.8,-2 -21,-6 -6.2,-4 -10.9,-9.6 -14.4,-16.9 -3.4,-7.3 -5.1,-15.6 -5.1,-25.1 0,-9.4 1.7,-17.7 5.1,-24.8 3.4,-7.1 8.2,-12.6 14.3,-16.4 6.1,-3.9 13.1,-5.8 21.1,-5.8 6.6,0 12.4,1.4 17.5,4.1 5.1,2.7 9,6.6 11.7,11.6 V 855 c 0,-3.1 1,-5.6 3.1,-7.6 2.1,-1.9 4.8,-2.9 8.3,-2.9 3.5,0.2 6.3,1.2 8.6,3.2 z m -25.8,105.1 c 4,-5.1 6.1,-12.4 6.1,-21.8 0,-9.4 -2,-16.7 -6.1,-21.7 -4,-5 -9.7,-7.6 -17.1,-7.6 -7.5,0 -13.2,2.5 -17.3,7.5 -4.1,5 -6.2,12.1 -6.2,21.4 0,9.4 2.1,16.8 6.2,22 4.1,5.2 9.8,7.8 17.2,7.8 7.4,0 13.1,-2.5 17.2,-7.6 z"
   id="path935"
   style="stroke-width:5.31715" />
	<path
   class="st1"
   d="m 1071.5,885.9 c 1.7,-1.1 3.5,-1.7 5.5,-1.7 2.9,0 5.4,1 7.7,2.9 2.3,1.9 3.4,4.3 3.4,7.2 0,1.6 -0.3,3 -0.9,4.3 l -30.8,72.1 c -1,2.4 -2.5,4.2 -4.6,5.4 -2.1,1.2 -4.3,1.9 -6.8,1.9 -2.4,0 -4.6,-0.6 -6.6,-1.9 -2.1,-1.2 -3.6,-3 -4.6,-5.4 l -22.2,-53.3 -21.4,53.3 c -1,2.4 -2.5,4.2 -4.6,5.4 -2.1,1.2 -4.3,1.9 -6.8,1.9 -2.4,0 -4.6,-0.6 -6.7,-1.9 -2.1,-1.2 -3.7,-3 -4.7,-5.4 L 937,898.6 c -0.6,-1.6 -0.9,-3 -0.9,-4.1 0,-2.9 1.2,-5.3 3.7,-7.4 2.5,-2.1 5.2,-3.1 8.2,-3.1 2.1,0 4,0.6 5.8,1.7 1.7,1.1 3,2.8 3.9,5 l 22,56.9 22.6,-56.3 c 1,-2.4 2.4,-4.1 4.3,-5.3 1.9,-1.2 3.9,-1.8 6.2,-1.8 2.3,0 4.3,0.6 6.2,1.8 1.9,1.2 3.3,3 4.3,5.3 l 22.7,56.5 21.8,-56.9 c 0.7,-2.2 2,-3.9 3.7,-5 z"
   id="path937"
   style="stroke-width:5.31715" />
	<path
   class="st1"
   d="m 1117.7,972.8 c -7,-3.9 -12.5,-9.4 -16.3,-16.6 -3.9,-7.2 -5.8,-15.6 -5.8,-25.2 0,-9.6 1.9,-17.9 5.8,-25.1 3.9,-7.1 9.3,-12.6 16.3,-16.5 7,-3.9 15.2,-5.8 24.5,-5.8 9.3,0 17.5,1.9 24.5,5.8 7,3.9 12.4,9.4 16.2,16.5 3.8,7.1 5.7,15.5 5.7,25.1 0,9.6 -1.9,18 -5.7,25.2 -3.8,7.2 -9.2,12.7 -16.2,16.6 -7,3.9 -15.2,5.8 -24.5,5.8 -9.3,-0.1 -17.5,-2 -24.5,-5.8 z m 41.7,-19.8 c 4,-5 6,-12.3 6,-22 0,-9.6 -2,-16.9 -6,-21.9 -4,-5 -9.7,-7.5 -17.2,-7.5 -7.5,0 -13.2,2.5 -17.2,7.5 -4,5 -6.1,12.3 -6.1,21.9 0,9.7 2,17 6,22 4,5 9.7,7.5 17.2,7.5 7.5,-0.1 13.3,-2.5 17.3,-7.5 z"
   id="path939"
   style="stroke-width:5.31715" />
	<path
   class="st1"
   d="m 1264.5,886.1 c 1.9,1.6 2.8,4 2.8,7.3 0,3.4 -0.8,5.8 -2.4,7.5 -1.6,1.6 -4.5,2.7 -8.8,3.2 l -5.6,0.6 c -7.3,0.7 -12.7,3.2 -16.1,7.5 -3.4,4.2 -5.1,9.5 -5.1,15.8 v 39 c 0,3.6 -1.1,6.4 -3.4,8.3 -2.2,1.9 -5,2.9 -8.4,2.9 -3.4,0 -6.1,-1 -8.3,-2.9 -2.2,-1.9 -3.3,-4.7 -3.3,-8.3 v -72.1 c 0,-3.5 1.1,-6.2 3.3,-8 2.2,-1.9 4.9,-2.8 8.1,-2.8 3.2,0 5.8,0.9 7.8,2.7 2,1.8 3,4.4 3,7.7 v 7.5 c 2.4,-5.5 5.9,-9.7 10.5,-12.7 4.7,-3 9.8,-4.7 15.6,-5 l 2.6,-0.2 c 3.3,-0.3 5.9,0.3 7.7,2 z"
   id="path941"
   style="stroke-width:5.31715" />
	<path
   class="st1"
   d="m 1360.3,967 c 0,2.9 -1,5.4 -3.1,7.6 -2.1,2.2 -4.4,3.4 -7.2,3.4 -2.7,0 -5.3,-1.1 -7.6,-3.4 l -43.6,-39.5 V 967 c 0,3.6 -1.1,6.3 -3.4,8.2 -2.3,1.9 -5,2.8 -8.4,2.8 -3.4,0 -6.1,-0.9 -8.3,-2.8 -2.2,-1.9 -3.3,-4.6 -3.3,-8.2 V 855.7 c 0,-3.6 1.1,-6.3 3.3,-8.2 2.2,-1.9 4.9,-2.8 8.3,-2.8 3.4,0 6.2,0.9 8.4,2.8 2.2,1.9 3.4,4.6 3.4,8.2 v 70.1 l 39.9,-38.2 c 2.2,-2.2 4.8,-3.4 7.6,-3.4 2.9,0 5.3,1.1 7.5,3.2 2.1,2.1 3.2,4.6 3.2,7.5 0,2.9 -1.2,5.5 -3.5,7.8 l -29.3,27.2 32.4,29.1 c 2.5,2.3 3.7,5 3.7,8 z"
   id="path943"
   style="stroke-width:5.31715" />
	<path
   class="st1"
   d="m 1449.6,954.5 c 1.3,1.6 2,3.8 2,6.5 0,3.9 -2.3,7.1 -6.9,9.7 -4.2,2.4 -9,4.3 -14.4,5.7 -5.3,1.4 -10.4,2.1 -15.3,2.1 -14.7,0 -26.3,-4.2 -34.9,-12.7 -8.6,-8.5 -12.9,-20 -12.9,-34.7 0,-9.3 1.9,-17.6 5.6,-24.8 3.7,-7.2 9,-12.8 15.8,-16.8 6.8,-4 14.4,-6 23,-6 8.2,0 15.3,1.8 21.4,5.4 6.1,3.6 10.8,8.7 14.2,15.3 3.4,6.6 5,14.4 5,23.3 0,5.3 -2.4,8 -7.1,8 h -55 c 0.7,8.6 3.2,14.9 7.3,18.9 4.1,4 10.1,6.1 17.9,6.1 4,0 7.5,-0.5 10.5,-1.5 3,-1 6.5,-2.4 10.3,-4.1 3.7,-2 6.5,-3 8.2,-3 2.2,0.2 3.9,1 5.3,2.6 z M 1397,906 c -3.8,4 -6.1,9.7 -6.8,17.2 h 42.1 c -0.2,-7.6 -2.1,-13.3 -5.6,-17.2 -3.5,-3.9 -8.3,-5.9 -14.5,-5.9 -6.4,-0.1 -11.4,1.9 -15.2,5.9 z"
   id="path945"
   style="stroke-width:5.31715" />
	<path
   class="st1"
   d="m 1527.9,886.1 c 1.9,1.6 2.8,4 2.8,7.3 0,3.4 -0.8,5.8 -2.4,7.5 -1.6,1.6 -4.5,2.7 -8.8,3.2 l -5.6,0.6 c -7.3,0.7 -12.7,3.2 -16.1,7.5 -3.4,4.2 -5.1,9.5 -5.1,15.8 v 39 c 0,3.6 -1.1,6.4 -3.4,8.3 -2.2,1.9 -5,2.9 -8.4,2.9 -3.4,0 -6.1,-1 -8.3,-2.9 -2.2,-1.9 -3.3,-4.7 -3.3,-8.3 v -72.1 c 0,-3.5 1.1,-6.2 3.3,-8 2.2,-1.9 4.9,-2.8 8.1,-2.8 3.2,0 5.8,0.9 7.8,2.7 2,1.8 3,4.4 3,7.7 v 7.5 c 2.4,-5.5 5.9,-9.7 10.5,-12.7 4.7,-3 9.8,-4.7 15.6,-5 l 2.6,-0.2 c 3.3,-0.3 5.9,0.3 7.7,2 z"
   id="path947"
   style="stroke-width:5.31715" />
</g></g>
<style
   type="text/css"
   id="style921">
	.st0{fill:#F9ECDE;}
	.st1{fill:#F15B22;}
	.st2{fill:#FFFFFF;}
	.st3{fill:#010101;}
	.st4{fill:none;stroke:#7D7D7D;stroke-miterlimit:10;}
	.st5{fill:#383838;}
</style><style
   type="text/css"
   id="style1110">
	.st0{fill:#F9ECDE;}
	.st1{fill:#F15B22;}
	.st2{fill:#FFFFFF;}
	.st3{fill:#010101;}
	.st4{fill:none;stroke:#7D7D7D;stroke-miterlimit:10;}
	.st5{fill:#383838;}
</style></svg>
