<?xml version="1.0" encoding="utf-8"?>
<!-- Generator: Adobe Illustrator 26.0.1, SVG Export Plug-In . SVG Version: 6.00 Build 0)  -->
<svg version="1.1" id="Layer_1" xmlns="http://www.w3.org/2000/svg" xmlns:xlink="http://www.w3.org/1999/xlink" x="0px" y="0px"
	 viewBox="0 0 64 64" style="enable-background:new 0 0 64 64;" xml:space="preserve">
<style type="text/css">
	.st0{fill:#F9ECDE;}
	.st1{fill:#F15B22;}
	.st2{fill:#FFFFFF;}
	.st3{fill:#010101;}
	.st4{fill:none;stroke:#7D7D7D;stroke-miterlimit:10;}
	.st5{fill:#383838;}
</style>
<g>
	<path class="st1" d="M508.2,1077.4c-63.4-112.3-0.2-273,150-288.5c92.3-9.5,166.2,33.4,227.9,96.7c28.9,29.6,50.6,66.2,75.4,99.7
		c16.1,21.9,30.1,45.7,48.1,65.9c40.5,45.2,97.7,57.5,148.5,34.5c48.1-21.8,76.5-70.8,71.6-123.8c-5-54.4-45.8-98.7-103.3-113.1
		c-47.4-11.9-89.6,3.4-134.1,26.3c-8.8-46.1-22.4-89-60.6-118c-40.8-30.9-82.2-29.7-123.4,1.8c0.4-44,33.8-83.1,76.3-91.3
		c61-11.8,112.4,28.6,146.9,115.7c2.5-0.2,5.3,0.2,7.6-0.7c100.7-38.1,191-14.7,254.1,65.9c60.6,77.3,62,183.5,3.6,267.1
		c-84.4,120.9-232.6,133.5-335.1,26.6c-28.1-29.3-48.8-65.5-75.2-96.6c-31.5-37.1-60.4-79.6-99.5-106.7
		c-113.3-78.6-238.8-25.4-272.9,110.7C511.9,1058.3,510.4,1066.9,508.2,1077.4z"/>
	<path class="st1" d="M487.5,832.9c-18.9-123,82.1-214.3,216.2-199.4C736,542.9,792.5,477.2,896.2,478
		c95.8,0.7,161.3,52.8,200.7,141.6c79.2-23.5,144.1,2.8,196.3,63.1c32,36.9,44.6,81.1,37.7,137.8c-66-106.5-150.8-150.4-268.7-108.1
		c-32.2-77-86.7-123.8-172.4-122.5c-64.2,1-106.3,41.9-142.2,131.4C634.6,690.3,546.8,723.8,487.5,832.9z"/>
	<path class="st1" d="M850.4,1316.3c-34.1,14.8-64.4,12.4-94.5,5.5c-76.6-17.4-137.1-57.8-174.1-128.3
		c-29.2-55.6-26.3-110.9,12.5-161.4c36.7-47.8,94.7-62.7,145.5-30.9c35.2,22.1,65.6,53.7,93.7,85c32.6,36.3,57.7,79.6,91,115.2
		c53,56.6,120.7,82.2,198.8,78.4c7-0.3,14,0,25.8,0.1c-39.1,48.3-86.1,68.6-143.2,64.7c-62.1-4.2-112.6-34.9-155.6-77.1
		c-29.1-28.5-53-62.1-80.5-92.2c-14.5-15.9-30-32.9-48.7-42.4c-12.6-6.4-34.2-5.6-46.9,1.2c-17.7,9.4-20.8,32.5-9.7,48.2
		c17.9,25.5,37.7,51.8,62.4,70c29.6,21.8,65.1,35.4,98.2,52.4C831.9,1308.5,839.1,1311.3,850.4,1316.3z"/>
</g>
</svg>
