<?xml version="1.0" encoding="utf-8"?>
<!-- Generator: Adobe Illustrator 26.0.1, SVG Export Plug-In . SVG Version: 6.00 Build 0)  -->
<svg version="1.1" id="Layer_1" xmlns="http://www.w3.org/2000/svg" xmlns:xlink="http://www.w3.org/1999/xlink" x="0px" y="0px"
	 viewBox="0 0 1823.2 1823.2" style="enable-background:new 0 0 1823.2 1823.2;" xml:space="preserve">
<style type="text/css">
	.st0{fill:#F9ECDE;}
	.st1{fill:#F15B22;}
	.st2{fill:#FFFFFF;}
	.st3{fill:#010101;}
	.st4{fill:none;stroke:#7D7D7D;stroke-miterlimit:10;}
	.st5{fill:#383838;}
</style>
<g>
	<path class="st1" d="M376.5,968.3c0,2.7-0.9,4.9-2.6,6.4c-1.7,1.6-4.4,2.3-7.8,2.3h-62.3c-3.1,0-5.7-1-7.6-3c-2-2-3-4.3-3-7.1
		c0-2.9,1.1-5.6,3.4-8.2l47.9-55.4h-41.6c-3.5,0-6.1-0.7-7.8-2.2c-1.7-1.5-2.6-3.7-2.6-6.5c0-2.9,0.9-5,2.6-6.5
		c1.7-1.5,4.3-2.2,7.8-2.2h60.2c3.2,0,5.8,1,7.7,2.9c1.9,1.9,2.9,4.3,2.9,7.2c0,3-1.1,5.7-3.2,8.2l-48.1,55.4h43.6
		C373.1,959.5,376.5,962.4,376.5,968.3z"/>
	<path class="st1" d="M476.3,967c0,2.9-1,5.4-3.1,7.6s-4.4,3.4-7.2,3.4c-2.7,0-5.3-1.1-7.6-3.4l-43.6-39.5V967
		c0,3.6-1.1,6.3-3.4,8.2s-5,2.8-8.4,2.8s-6.1-0.9-8.3-2.8c-2.2-1.9-3.3-4.6-3.3-8.2V855.7c0-3.6,1.1-6.3,3.3-8.2
		c2.2-1.9,4.9-2.8,8.3-2.8s6.2,0.9,8.4,2.8s3.4,4.6,3.4,8.2v70.1l39.9-38.2c2.2-2.2,4.8-3.4,7.6-3.4c2.9,0,5.3,1.1,7.5,3.2
		c2.1,2.1,3.2,4.6,3.2,7.5c0,2.9-1.2,5.5-3.5,7.8l-29.3,27.2l32.4,29.1C475,961.3,476.3,964,476.3,967z"/>
	<path class="st1" d="M504.7,972.8c-6.9-3.9-12.2-9.3-15.9-16.4c-3.7-7.1-5.6-15.3-5.6-24.8c0-9.4,2-17.8,5.9-25.1
		c3.9-7.3,9.4-12.9,16.5-16.9c7.1-4,15.2-6,24.4-6c4.8,0,9.7,0.7,14.6,2.1c4.9,1.4,9.2,3.2,13,5.6c4,2.6,6,5.9,6,9.9
		c0,2.7-0.7,4.9-2,6.6s-3,2.5-5.1,2.5c-1.4,0-2.8-0.3-4.3-0.9c-1.5-0.6-3-1.4-4.5-2.2c-2.7-1.6-5.3-2.9-7.8-3.8
		c-2.5-0.9-5.3-1.4-8.6-1.4c-7.7,0-13.6,2.5-17.8,7.6c-4.2,5-6.2,12.3-6.2,21.7c0,9.3,2.1,16.5,6.2,21.5c4.2,5,10.1,7.5,17.8,7.5
		c3.1,0,5.9-0.5,8.3-1.4c2.4-0.9,5.1-2.2,8.1-3.8c1.9-1.1,3.5-2,4.8-2.5c1.4-0.6,2.7-0.8,4.1-0.8c2,0,3.7,0.9,5,2.6
		c1.4,1.7,2.1,3.9,2.1,6.5c0,2.1-0.5,3.9-1.4,5.5c-0.9,1.6-2.5,3-4.6,4.2c-3.9,2.5-8.3,4.4-13.4,5.9c-5.1,1.4-10.3,2.1-15.7,2.1
		C519.6,978.5,511.6,976.6,504.7,972.8z"/>
	<path class="st1" d="M580.6,975.3c-2.2-1.9-3.3-4.7-3.3-8.3V855.7c0-3.6,1.1-6.3,3.3-8.2c2.2-1.9,4.9-2.8,8.3-2.8
		c3.4,0,6.2,0.9,8.4,2.8s3.4,4.6,3.4,8.2V967c0,3.6-1.1,6.4-3.4,8.3c-2.2,1.9-5,2.9-8.4,2.9C585.5,978.2,582.8,977.2,580.6,975.3z"
		/>
	<path class="st1" d="M639.9,972.8c-7-3.9-12.5-9.4-16.3-16.6c-3.9-7.2-5.8-15.6-5.8-25.2c0-9.6,1.9-17.9,5.8-25.1
		c3.9-7.1,9.3-12.6,16.3-16.5c7-3.9,15.2-5.8,24.5-5.8c9.3,0,17.5,1.9,24.5,5.8c7,3.9,12.4,9.4,16.2,16.5c3.8,7.1,5.7,15.5,5.7,25.1
		c0,9.6-1.9,18-5.7,25.2c-3.8,7.2-9.2,12.7-16.2,16.6c-7,3.9-15.2,5.8-24.5,5.8C655.1,978.5,646.9,976.6,639.9,972.8z M681.5,953
		c4-5,6-12.3,6-22c0-9.6-2-16.9-6-21.9c-4-5-9.7-7.5-17.2-7.5c-7.5,0-13.2,2.5-17.2,7.5c-4,5-6.1,12.3-6.1,21.9c0,9.7,2,17,6,22
		c4,5,9.7,7.5,17.2,7.5C671.8,960.4,677.6,958,681.5,953z"/>
	<path class="st1" d="M808.7,887c2.1,2,3.2,4.7,3.2,8v72.3c0,3.2-1.1,5.8-3.3,7.8c-2.2,2-5,3-8.5,3c-3.4,0-6-0.9-8-2.8
		c-2-1.9-3-4.4-3-7.6v-4.7c-2.9,5-6.7,8.8-11.6,11.5c-4.8,2.7-10.3,4-16.4,4c-22.4,0-33.6-12.6-33.6-37.7V895c0-3.4,1.1-6,3.2-8
		c2.1-2,4.9-3,8.4-3c3.6,0,6.5,1,8.6,3c2.1,2,3.2,4.7,3.2,8v46c0,6.5,1.3,11.2,3.9,14.4c2.6,3.1,6.7,4.7,12.3,4.7
		c6.5,0,11.7-2.1,15.6-6.4s5.9-10,5.9-17.1V895c0-3.4,1.1-6,3.2-8c2.1-2,4.9-3,8.4-3C803.7,884,806.6,885,808.7,887z"/>
	<path class="st1" d="M918.9,847.7c2.2,2,3.4,4.6,3.4,7.8V967c0,3.4-1.1,6-3.2,8c-2.1,2-4.9,3-8.4,3c-3.5,0-6.3-1-8.4-3
		c-2.1-2-3.2-4.7-3.2-8v-4.7c-2.7,5.1-6.7,9.1-11.8,11.9c-5.2,2.9-11,4.3-17.6,4.3c-7.8,0-14.8-2-21-6c-6.2-4-10.9-9.6-14.4-16.9
		c-3.4-7.3-5.1-15.6-5.1-25.1c0-9.4,1.7-17.7,5.1-24.8c3.4-7.1,8.2-12.6,14.3-16.4c6.1-3.9,13.1-5.8,21.1-5.8
		c6.6,0,12.4,1.4,17.5,4.1c5.1,2.7,9,6.6,11.7,11.6v-44.2c0-3.1,1-5.6,3.1-7.6c2.1-1.9,4.8-2.9,8.3-2.9
		C913.8,844.7,916.6,845.7,918.9,847.7z M893.1,952.8c4-5.1,6.1-12.4,6.1-21.8c0-9.4-2-16.7-6.1-21.7c-4-5-9.7-7.6-17.1-7.6
		c-7.5,0-13.2,2.5-17.3,7.5c-4.1,5-6.2,12.1-6.2,21.4c0,9.4,2.1,16.8,6.2,22c4.1,5.2,9.8,7.8,17.2,7.8
		C883.3,960.4,889,957.9,893.1,952.8z"/>
	<path class="st1" d="M1071.5,885.9c1.7-1.1,3.5-1.7,5.5-1.7c2.9,0,5.4,1,7.7,2.9c2.3,1.9,3.4,4.3,3.4,7.2c0,1.6-0.3,3-0.9,4.3
		l-30.8,72.1c-1,2.4-2.5,4.2-4.6,5.4c-2.1,1.2-4.3,1.9-6.8,1.9c-2.4,0-4.6-0.6-6.6-1.9c-2.1-1.2-3.6-3-4.6-5.4l-22.2-53.3
		l-21.4,53.3c-1,2.4-2.5,4.2-4.6,5.4c-2.1,1.2-4.3,1.9-6.8,1.9c-2.4,0-4.6-0.6-6.7-1.9c-2.1-1.2-3.7-3-4.7-5.4L937,898.6
		c-0.6-1.6-0.9-3-0.9-4.1c0-2.9,1.2-5.3,3.7-7.4c2.5-2.1,5.2-3.1,8.2-3.1c2.1,0,4,0.6,5.8,1.7c1.7,1.1,3,2.8,3.9,5l22,56.9
		l22.6-56.3c1-2.4,2.4-4.1,4.3-5.3c1.9-1.2,3.9-1.8,6.2-1.8s4.3,0.6,6.2,1.8c1.9,1.2,3.3,3,4.3,5.3l22.7,56.5l21.8-56.9
		C1068.5,888.7,1069.8,887,1071.5,885.9z"/>
	<path class="st1" d="M1117.7,972.8c-7-3.9-12.5-9.4-16.3-16.6c-3.9-7.2-5.8-15.6-5.8-25.2c0-9.6,1.9-17.9,5.8-25.1
		c3.9-7.1,9.3-12.6,16.3-16.5c7-3.9,15.2-5.8,24.5-5.8c9.3,0,17.5,1.9,24.5,5.8c7,3.9,12.4,9.4,16.2,16.5c3.8,7.1,5.7,15.5,5.7,25.1
		c0,9.6-1.9,18-5.7,25.2c-3.8,7.2-9.2,12.7-16.2,16.6c-7,3.9-15.2,5.8-24.5,5.8C1132.9,978.5,1124.7,976.6,1117.7,972.8z
		 M1159.4,953c4-5,6-12.3,6-22c0-9.6-2-16.9-6-21.9c-4-5-9.7-7.5-17.2-7.5c-7.5,0-13.2,2.5-17.2,7.5c-4,5-6.1,12.3-6.1,21.9
		c0,9.7,2,17,6,22c4,5,9.7,7.5,17.2,7.5C1149.6,960.4,1155.4,958,1159.4,953z"/>
	<path class="st1" d="M1264.5,886.1c1.9,1.6,2.8,4,2.8,7.3c0,3.4-0.8,5.8-2.4,7.5c-1.6,1.6-4.5,2.7-8.8,3.2l-5.6,0.6
		c-7.3,0.7-12.7,3.2-16.1,7.5c-3.4,4.2-5.1,9.5-5.1,15.8V967c0,3.6-1.1,6.4-3.4,8.3c-2.2,1.9-5,2.9-8.4,2.9c-3.4,0-6.1-1-8.3-2.9
		c-2.2-1.9-3.3-4.7-3.3-8.3v-72.1c0-3.5,1.1-6.2,3.3-8c2.2-1.9,4.9-2.8,8.1-2.8c3.2,0,5.8,0.9,7.8,2.7c2,1.8,3,4.4,3,7.7v7.5
		c2.4-5.5,5.9-9.7,10.5-12.7c4.7-3,9.8-4.7,15.6-5l2.6-0.2C1260.1,883.8,1262.7,884.4,1264.5,886.1z"/>
	<path class="st1" d="M1360.3,967c0,2.9-1,5.4-3.1,7.6s-4.4,3.4-7.2,3.4c-2.7,0-5.3-1.1-7.6-3.4l-43.6-39.5V967
		c0,3.6-1.1,6.3-3.4,8.2s-5,2.8-8.4,2.8c-3.4,0-6.1-0.9-8.3-2.8c-2.2-1.9-3.3-4.6-3.3-8.2V855.7c0-3.6,1.1-6.3,3.3-8.2
		c2.2-1.9,4.9-2.8,8.3-2.8c3.4,0,6.2,0.9,8.4,2.8s3.4,4.6,3.4,8.2v70.1l39.9-38.2c2.2-2.2,4.8-3.4,7.6-3.4c2.9,0,5.3,1.1,7.5,3.2
		c2.1,2.1,3.2,4.6,3.2,7.5c0,2.9-1.2,5.5-3.5,7.8l-29.3,27.2l32.4,29.1C1359.1,961.3,1360.3,964,1360.3,967z"/>
	<path class="st1" d="M1449.6,954.5c1.3,1.6,2,3.8,2,6.5c0,3.9-2.3,7.1-6.9,9.7c-4.2,2.4-9,4.3-14.4,5.7c-5.3,1.4-10.4,2.1-15.3,2.1
		c-14.7,0-26.3-4.2-34.9-12.7c-8.6-8.5-12.9-20-12.9-34.7c0-9.3,1.9-17.6,5.6-24.8c3.7-7.2,9-12.8,15.8-16.8c6.8-4,14.4-6,23-6
		c8.2,0,15.3,1.8,21.4,5.4c6.1,3.6,10.8,8.7,14.2,15.3c3.4,6.6,5,14.4,5,23.3c0,5.3-2.4,8-7.1,8h-55c0.7,8.6,3.2,14.9,7.3,18.9
		c4.1,4,10.1,6.1,17.9,6.1c4,0,7.5-0.5,10.5-1.5c3-1,6.5-2.4,10.3-4.1c3.7-2,6.5-3,8.2-3C1446.5,952.1,1448.2,952.9,1449.6,954.5z
		 M1397,906c-3.8,4-6.1,9.7-6.8,17.2h42.1c-0.2-7.6-2.1-13.3-5.6-17.2c-3.5-3.9-8.3-5.9-14.5-5.9C1405.8,900,1400.8,902,1397,906z"
		/>
	<path class="st1" d="M1527.9,886.1c1.9,1.6,2.8,4,2.8,7.3c0,3.4-0.8,5.8-2.4,7.5c-1.6,1.6-4.5,2.7-8.8,3.2l-5.6,0.6
		c-7.3,0.7-12.7,3.2-16.1,7.5c-3.4,4.2-5.1,9.5-5.1,15.8V967c0,3.6-1.1,6.4-3.4,8.3c-2.2,1.9-5,2.9-8.4,2.9c-3.4,0-6.1-1-8.3-2.9
		c-2.2-1.9-3.3-4.7-3.3-8.3v-72.1c0-3.5,1.1-6.2,3.3-8c2.2-1.9,4.9-2.8,8.1-2.8c3.2,0,5.8,0.9,7.8,2.7c2,1.8,3,4.4,3,7.7v7.5
		c2.4-5.5,5.9-9.7,10.5-12.7c4.7-3,9.8-4.7,15.6-5l2.6-0.2C1523.5,883.8,1526.1,884.4,1527.9,886.1z"/>
</g>
</svg>
